<svg width="22" height="22" viewBox="0 0 22 22" fill="none" xmlns="http://www.w3.org/2000/svg">
<path d="M17.4167 10.0833H8.25L11.2658 7.06749C11.3518 6.98228 11.4199 6.88089 11.4665 6.76919C11.513 6.65748 11.537 6.53767 11.537 6.41666C11.537 6.29565 11.513 6.17584 11.4665 6.06413C11.4199 5.95243 11.3518 5.85104 11.2658 5.76583C11.0941 5.5951 10.8618 5.49927 10.6196 5.49927C10.3774 5.49927 10.1451 5.5951 9.97333 5.76583L6.04083 9.70749C5.69654 10.0497 5.50205 10.5145 5.5 11C5.50446 11.4822 5.69877 11.9433 6.04083 12.2833L9.97333 16.225C10.0588 16.3098 10.1601 16.377 10.2716 16.4227C10.383 16.4684 10.5024 16.4917 10.6228 16.4913C10.7433 16.4909 10.8625 16.4668 10.9736 16.4203C11.0847 16.3738 11.1856 16.3059 11.2704 16.2204C11.3553 16.1349 11.4225 16.0336 11.4682 15.9221C11.5139 15.8107 11.5372 15.6914 11.5368 15.5709C11.5363 15.4505 11.5122 15.3313 11.4657 15.2202C11.4192 15.1091 11.3513 15.0082 11.2658 14.9233L8.25 11.9167H17.4167C17.6598 11.9167 17.8929 11.8201 18.0648 11.6482C18.2368 11.4763 18.3333 11.2431 18.3333 11C18.3333 10.7569 18.2368 10.5237 18.0648 10.3518C17.8929 10.1799 17.6598 10.0833 17.4167 10.0833Z" fill="#FF366A"/>
</svg>
