<svg width="22" height="24" viewBox="0 0 22 24" fill="none" xmlns="http://www.w3.org/2000/svg">
<path d="M14.1413 23H8.79587C7.97367 23 7.19352 22.6916 6.65629 22.1531C6.24986 21.7454 6.00927 21.2337 5.97073 20.6952C3.24954 19.1778 1.59696 16.6394 1.54441 13.8802L1.53974 13.6466C1.53507 13.4305 1.61799 13.2249 1.77332 13.0683C1.93799 12.9001 2.17274 12.8043 2.41566 12.8043H20.351C20.5951 12.8043 20.8287 12.9013 20.9934 13.0683C21.1475 13.226 21.2304 13.4316 21.2269 13.6466L21.2223 13.8802C21.1697 16.6113 19.6211 19.0575 16.9711 20.5959C16.9361 21.9265 15.6794 23 14.1413 23ZM2.71581 13.9713C2.80574 16.303 4.26911 18.4512 6.65161 19.7362C6.94943 19.8974 7.13396 20.1953 7.13396 20.5165V20.5387C7.13396 20.8997 7.32432 21.1672 7.48432 21.3284C7.80433 21.6484 8.28316 21.833 8.79704 21.833H14.1425C15.0593 21.833 15.8056 21.2524 15.8056 20.5387H16.9735C16.9735 20.5364 16.9735 20.5352 16.9735 20.5329H15.8056C15.8056 20.1731 16.0345 19.7911 16.3603 19.6018C18.6272 18.2947 19.9668 16.2481 20.052 13.9725H2.71581V13.9713Z" fill="#FF366A" stroke="#FF366A" stroke-width="0.5"/>
<path d="M19.5709 11.663H3.51706C2.70888 11.6595 1.03295 10.9528 1.00025 8.79636C0.985065 7.79875 1.66828 6.91095 2.62245 6.63994C2.72873 5.63065 3.51589 4.79892 4.53547 4.65875C4.54131 4.65758 4.55532 4.65174 4.56817 4.63655C5.02481 4.10971 5.54453 3.63544 6.11213 3.22658C6.19505 3.16701 6.21957 3.07005 6.22775 3.01748C6.27913 2.64484 6.43446 2.28855 6.68906 1.95563C7.05929 1.47318 7.56966 1.16595 8.12674 1.08885C8.78544 0.998906 9.44413 1.19983 9.93348 1.64256C9.94632 1.65424 9.96151 1.66008 9.97435 1.65892C11.2882 1.4615 12.6115 1.56429 13.8553 1.94044C14.3329 1.26758 15.1493 0.908958 15.9785 1.01993C16.9595 1.15077 17.7432 1.92876 17.8833 2.91001C17.8974 3.00931 17.9055 3.10977 17.9067 3.20906C18.0749 3.22074 18.2431 3.25228 18.4101 3.30368C19.2042 3.54666 19.8092 4.22769 19.9517 5.03956C20.0708 5.72177 19.8816 6.39696 19.4308 6.90862C19.4705 7.0009 19.5091 7.09435 19.5464 7.18781C20.7178 7.25439 21.6498 8.22864 21.6498 9.41665C21.6498 10.5685 20.7669 11.5532 19.6387 11.6583C19.6293 11.6595 19.6188 11.6595 19.6095 11.6607H19.5978C19.5885 11.663 19.5791 11.663 19.5709 11.663ZM8.44208 2.23599C8.39069 2.23599 8.3393 2.23949 8.28675 2.2465C8.03565 2.28154 7.7974 2.43107 7.61521 2.6682C7.48323 2.83992 7.40849 3.0058 7.38513 3.17635C7.32907 3.58754 7.11885 3.94266 6.79418 4.1763C6.30016 4.53142 5.84818 4.94378 5.4511 5.40169C5.25489 5.62832 4.98627 5.7755 4.69547 5.81639C4.17225 5.88882 3.77867 6.34206 3.77867 6.87124C3.77984 7.30462 3.47502 7.66909 3.05574 7.73918C2.54187 7.82445 2.15997 8.27186 2.16814 8.78001C2.18917 10.1853 3.25779 10.4949 3.52057 10.496H19.5488C20.0731 10.4365 20.4807 9.96802 20.4807 9.42016C20.4807 8.83257 20.0031 8.3548 19.4156 8.3548H19.3934C19.0045 8.36765 18.6495 8.12934 18.5152 7.76604C18.4556 7.60601 18.3914 7.44831 18.3225 7.29411C18.1531 6.91563 18.2314 6.47523 18.521 6.17151C18.7581 5.92386 18.8597 5.58509 18.799 5.24166C18.7324 4.8585 18.4451 4.53726 18.0667 4.42161C17.9125 4.37488 17.7572 4.36203 17.6054 4.38423C17.3496 4.42161 17.0915 4.33166 16.9152 4.14476C16.7388 3.95785 16.6641 3.69618 16.7154 3.44503C16.74 3.32471 16.7435 3.20205 16.7248 3.07706C16.6594 2.61797 16.2787 2.23949 15.8208 2.17875C15.3875 2.12034 14.9823 2.31542 14.7592 2.68573C14.5291 3.06771 14.0748 3.23943 13.6544 3.10393C12.5355 2.74063 11.3373 2.63666 10.1437 2.81539C9.78399 2.86913 9.42194 2.75815 9.14748 2.5105C8.95245 2.33061 8.70485 2.23599 8.44208 2.23599Z" fill="#FF366A" stroke="#FF366A" stroke-width="0.5"/>
<path d="M15.4368 6.94133C15.2465 7.54059 15.5968 8.24149 16.1808 8.47512C16.9983 8.70875 17.2319 7.65741 16.6281 7.13641C16.2217 6.77194 15.6844 6.6855 15.4368 6.94133Z" fill="#FF366A" stroke="#FF366A" stroke-width="0.5"/>
<path d="M16.4014 8.56623C16.3267 8.56623 16.2473 8.55455 16.1643 8.53119C15.5395 8.2812 15.1833 7.54643 15.3807 6.9238L15.3854 6.91095L15.3947 6.90161C15.6668 6.62125 16.2379 6.70769 16.6677 7.09435C17.0484 7.42261 17.1022 7.94244 16.934 8.25434C16.8242 8.45643 16.6327 8.56623 16.4014 8.56623ZM15.4881 6.97287C15.3176 7.53709 15.6423 8.1971 16.2029 8.42138C16.4808 8.50082 16.7121 8.41905 16.8312 8.19826C16.9772 7.92725 16.927 7.47284 16.5906 7.18197C16.2181 6.84554 15.717 6.75325 15.4881 6.97287Z" fill="#FF366A" stroke="#FF366A" stroke-width="0.5"/>
<path d="M5.67903 15.6885C5.48867 16.2878 5.83903 16.9887 6.42298 17.2223C7.24051 17.4559 7.47409 16.4046 6.87029 15.8836C6.46503 15.5191 5.92779 15.4339 5.67903 15.6885Z" fill="#FF366A" stroke="#FF366A" stroke-width="0.5"/>
<path d="M6.64362 17.3134C6.56887 17.3134 6.48945 17.3017 6.40653 17.2784C5.78171 17.0284 5.4255 16.2936 5.62288 15.671L5.62755 15.6581L5.63689 15.6488C5.90901 15.3684 6.48011 15.4549 6.9099 15.8415C7.29063 16.1698 7.34435 16.6896 7.17618 17.0015C7.06639 17.2048 6.87486 17.3134 6.64362 17.3134ZM5.73032 15.72C5.55981 16.2842 5.88448 16.9443 6.44507 17.1685C6.72303 17.248 6.95428 17.1662 7.0734 16.9454C7.21939 16.6744 7.16917 16.22 6.83281 15.9291C6.46026 15.5939 5.9604 15.5004 5.73032 15.72Z" fill="#FF366A" stroke="#FF366A" stroke-width="0.5"/>
<path d="M14.3049 4.92392C13.7011 5.15054 13.2935 5.95657 13.401 6.66798C13.6311 7.60017 14.6389 7.10954 14.7627 6.18436C14.8585 5.55356 14.6495 4.987 14.3049 4.92392Z" fill="#FF366A" stroke="#FF366A" stroke-width="0.5"/>
<path d="M13.9029 7.22751C13.6331 7.22751 13.431 7.03009 13.3446 6.68198C13.2302 5.93086 13.6611 5.10263 14.2848 4.869L14.3 4.86316L14.3163 4.8655C14.6947 4.93325 14.9213 5.52901 14.822 6.19252C14.7403 6.80464 14.2976 7.20532 13.9356 7.22517C13.9227 7.22751 13.9122 7.22751 13.9029 7.22751ZM14.3093 4.98465C13.7429 5.20777 13.354 5.97057 13.4579 6.65979C13.5326 6.96117 13.6962 7.12238 13.9262 7.11069C14.2427 7.09317 14.6293 6.73221 14.704 6.17851C14.7928 5.59443 14.6118 5.05591 14.3093 4.98465Z" fill="#FF366A" stroke="#FF366A" stroke-width="0.5"/>
</svg>
