<svg width="18" height="18" viewBox="0 0 18 18" fill="none" xmlns="http://www.w3.org/2000/svg">
<g clip-path="url(#clip0_314_3053)">
<path d="M13.125 1.43741C12.2805 1.45054 11.4543 1.6863 10.7301 2.12086C10.0058 2.55543 9.40902 3.17341 9 3.91241C8.59098 3.17341 7.9942 2.55543 7.26993 2.12086C6.54565 1.6863 5.71954 1.45054 4.875 1.43741C3.5287 1.4959 2.26028 2.08485 1.34684 3.07558C0.433394 4.06632 -0.0508137 5.3783 -7.64383e-07 6.72491C-7.64383e-07 10.1352 3.5895 13.8597 6.6 16.3849C7.27216 16.9498 8.12201 17.2594 9 17.2594C9.87798 17.2594 10.7278 16.9498 11.4 16.3849C14.4105 13.8597 18 10.1352 18 6.72491C18.0508 5.3783 17.5666 4.06632 16.6532 3.07558C15.7397 2.08485 14.4713 1.4959 13.125 1.43741ZM10.4362 15.2374C10.0342 15.5759 9.52556 15.7616 9 15.7616C8.47443 15.7616 7.96576 15.5759 7.56375 15.2374C3.71025 12.0042 1.5 8.90216 1.5 6.72491C1.44873 5.77595 1.77477 4.84521 2.40702 4.13568C3.03927 3.42616 3.92642 2.99542 4.875 2.93741C5.82357 2.99542 6.71073 3.42616 7.34298 4.13568C7.97522 4.84521 8.30127 5.77595 8.25 6.72491C8.25 6.92382 8.32902 7.11459 8.46967 7.25524C8.61032 7.39589 8.80109 7.47491 9 7.47491C9.19891 7.47491 9.38968 7.39589 9.53033 7.25524C9.67098 7.11459 9.75 6.92382 9.75 6.72491C9.69873 5.77595 10.0248 4.84521 10.657 4.13568C11.2893 3.42616 12.1764 2.99542 13.125 2.93741C14.0736 2.99542 14.9607 3.42616 15.593 4.13568C16.2252 4.84521 16.5513 5.77595 16.5 6.72491C16.5 8.90216 14.2897 12.0042 10.4362 15.2344V15.2374Z" fill="#FF366A"/>
</g>
<defs>
<clipPath id="clip0_314_3053">
<rect width="18" height="18" fill="white"/>
</clipPath>
</defs>
</svg>
