<svg width="18" height="18" viewBox="0 0 18 18" fill="none" xmlns="http://www.w3.org/2000/svg">
<g clip-path="url(#clip0_278_1793)">
<path d="M9.00008 4.5C8.40673 4.5 7.82672 4.67595 7.33337 5.00559C6.84002 5.33524 6.4555 5.80377 6.22844 6.35195C6.00138 6.90013 5.94197 7.50333 6.05772 8.08527C6.17348 8.66721 6.4592 9.20176 6.87876 9.62132C7.29832 10.0409 7.83286 10.3266 8.41481 10.4424C8.99675 10.5581 9.59995 10.4987 10.1481 10.2716C10.6963 10.0446 11.1648 9.66006 11.4945 9.16671C11.8241 8.67336 12.0001 8.09334 12.0001 7.5C12.0001 6.70435 11.684 5.94129 11.1214 5.37868C10.5588 4.81607 9.79573 4.5 9.00008 4.5ZM9.00008 9C8.70341 9 8.4134 8.91203 8.16672 8.7472C7.92005 8.58238 7.72779 8.34811 7.61426 8.07403C7.50073 7.79994 7.47102 7.49834 7.5289 7.20736C7.58678 6.91639 7.72964 6.64912 7.93942 6.43934C8.1492 6.22956 8.41647 6.0867 8.70744 6.02882C8.99841 5.97094 9.30001 6.00065 9.5741 6.11418C9.84819 6.22771 10.0825 6.41997 10.2473 6.66665C10.4121 6.91332 10.5001 7.20333 10.5001 7.5C10.5001 7.89783 10.342 8.27936 10.0607 8.56066C9.77943 8.84196 9.3979 9 9.00008 9Z" fill="#FF366A"/>
<path d="M8.99994 18.0002C8.3684 18.0034 7.74528 17.8553 7.18274 17.5682C6.62021 17.2812 6.13464 16.8635 5.76669 16.3502C2.90844 12.4075 1.45869 9.44346 1.45869 7.53996C1.45869 5.5399 2.25322 3.62175 3.66748 2.20749C5.08173 0.793233 6.99988 -0.00128937 8.99994 -0.00128937C11 -0.00128937 12.9182 0.793233 14.3324 2.20749C15.7467 3.62175 16.5412 5.5399 16.5412 7.53996C16.5412 9.44346 15.0914 12.4075 12.2332 16.3502C11.8652 16.8635 11.3797 17.2812 10.8171 17.5682C10.2546 17.8553 9.63149 18.0034 8.99994 18.0002ZM8.99994 1.63596C7.43426 1.63775 5.93321 2.26051 4.8261 3.36761C3.71899 4.47472 3.09623 5.97577 3.09444 7.54146C3.09444 9.04896 4.51419 11.8367 7.09119 15.391C7.30997 15.6923 7.59697 15.9375 7.92873 16.1067C8.26049 16.2758 8.62757 16.3639 8.99994 16.3639C9.37232 16.3639 9.7394 16.2758 10.0712 16.1067C10.4029 15.9375 10.6899 15.6923 10.9087 15.391C13.4857 11.8367 14.9054 9.04896 14.9054 7.54146C14.9037 5.97577 14.2809 4.47472 13.1738 3.36761C12.0667 2.26051 10.5656 1.63775 8.99994 1.63596Z" fill="#FF366A"/>
</g>
<defs>
<clipPath id="clip0_278_1793">
<rect width="18" height="18" fill="white"/>
</clipPath>
</defs>
</svg>
