<svg width="17" height="17" viewBox="0 0 17 17" fill="none" xmlns="http://www.w3.org/2000/svg">
<g clip-path="url(#clip0_278_1809)">
<path d="M8.49994 0.708326V4.95833C8.49891 5.77447 8.21654 6.56531 7.70043 7.19754C7.18432 7.82978 6.46602 8.26476 5.66661 8.42916V16.2917C5.66661 16.4795 5.59198 16.6597 5.45914 16.7925C5.3263 16.9254 5.14614 17 4.95827 17C4.77041 17 4.59024 16.9254 4.45741 16.7925C4.32457 16.6597 4.24994 16.4795 4.24994 16.2917V8.42916C3.45052 8.26476 2.73223 7.82978 2.21612 7.19754C1.7 6.56531 1.41764 5.77447 1.41661 4.95833V0.708326C1.41661 0.520464 1.49123 0.340297 1.62407 0.207458C1.75691 0.0746201 1.93708 -7.62939e-06 2.12494 -7.62939e-06C2.3128 -7.62939e-06 2.49297 0.0746201 2.62581 0.207458C2.75865 0.340297 2.83327 0.520464 2.83327 0.708326V4.95833C2.83509 5.39626 2.97217 5.82294 3.22575 6.17999C3.47934 6.53704 3.83705 6.80702 4.24994 6.95299V0.708326C4.24994 0.520464 4.32457 0.340297 4.45741 0.207458C4.59024 0.0746201 4.77041 -7.62939e-06 4.95827 -7.62939e-06C5.14614 -7.62939e-06 5.3263 0.0746201 5.45914 0.207458C5.59198 0.340297 5.66661 0.520464 5.66661 0.708326V6.95299C6.0795 6.80702 6.43721 6.53704 6.69079 6.17999C6.94438 5.82294 7.08146 5.39626 7.08327 4.95833V0.708326C7.08327 0.520464 7.1579 0.340297 7.29074 0.207458C7.42358 0.0746201 7.60375 -7.62939e-06 7.79161 -7.62939e-06C7.97947 -7.62939e-06 8.15964 0.0746201 8.29247 0.207458C8.42531 0.340297 8.49994 0.520464 8.49994 0.708326ZM15.5833 7.08333C15.5516 8.42947 15.2167 9.75114 14.6035 10.9499C13.9903 12.1487 13.1146 13.1938 12.0416 14.0073V16.2917C12.0416 16.4795 11.967 16.6597 11.8341 16.7925C11.7013 16.9254 11.5211 17 11.3333 17C11.1454 17 10.9652 16.9254 10.8324 16.7925C10.6996 16.6597 10.6249 16.4795 10.6249 16.2917V1.41666C10.6186 1.15051 10.6913 0.88846 10.8339 0.66365C10.9765 0.438841 11.1826 0.261375 11.4261 0.153701C11.7057 0.0399177 12.0125 0.0100721 12.3089 0.0678112C12.6053 0.12555 12.8784 0.268373 13.0949 0.478826C14.7378 2.2815 15.6282 4.64474 15.5833 7.08333ZM14.1666 7.08333C14.1867 5.00943 13.4285 3.00338 12.0416 1.46128V12.0912C13.3691 10.7583 14.1304 8.96416 14.1666 7.08333Z" fill="#FF366A"/>
</g>
<defs>
<clipPath id="clip0_278_1809">
<rect width="17" height="17" fill="white"/>
</clipPath>
</defs>
</svg>
