<svg width="24" height="24" viewBox="0 0 24 24" fill="none" xmlns="http://www.w3.org/2000/svg">
<g clip-path="url(#clip0_278_1805)">
<path d="M15.8036 3.84324C14.1903 3.09097 12.3902 2.83397 10.6309 3.10476C8.87157 3.37554 7.23206 4.16194 5.91969 5.36451C4.60731 6.56709 3.68101 8.13182 3.25792 9.86084C2.83483 11.5899 2.93396 13.4055 3.54276 15.0782C4.15157 16.7509 5.24271 18.2055 6.67821 19.258C8.11371 20.3106 9.82909 20.9138 11.6074 20.9914C13.3858 21.0691 15.1472 20.6177 16.669 19.6942C18.1907 18.7708 19.4045 17.4168 20.1568 15.8036C21.1629 13.6399 21.2696 11.1655 20.4534 8.92321C19.6373 6.68095 17.9651 4.85401 15.8036 3.84324ZM8.83036 18.7973C7.48598 18.1704 6.35769 17.159 5.58816 15.8908C4.81863 14.6227 4.44243 13.1548 4.50714 11.6729C4.57184 10.1909 5.07454 8.76144 5.95166 7.56519C6.82879 6.36894 8.04094 5.45965 9.43485 4.95232C10.8287 4.44498 12.3418 4.36237 13.7826 4.71494C15.2235 5.06752 16.5274 5.83943 17.5296 6.93308C18.5317 8.02673 19.1871 9.39299 19.4127 10.8591C19.6384 12.3252 19.4242 13.8253 18.7973 15.1696C17.955 16.9709 16.4325 18.3644 14.564 19.0445C12.6954 19.7246 10.6334 19.6357 8.83036 18.7973ZM14.5357 6.56216C13.4602 6.06065 12.2601 5.88932 11.0873 6.06984C9.91438 6.25036 8.82137 6.77463 7.94646 7.57635C7.07154 8.37806 6.454 9.42121 6.17195 10.5739C5.88989 11.7266 5.95597 12.937 6.36184 14.0521C6.76771 15.1673 7.49514 16.137 8.45214 16.8387C9.40914 17.5404 10.5527 17.9425 11.7383 17.9943C12.9238 18.0461 14.0981 17.7451 15.1126 17.1295C16.1272 16.5139 16.9363 15.6112 17.4378 14.5357C18.1085 13.0933 18.1796 11.4437 17.6355 9.94884C17.0915 8.45403 15.9767 7.23606 14.5357 6.56216ZM10.0982 16.0784C9.29159 15.7023 8.61461 15.0954 8.15289 14.3345C7.69118 13.5736 7.46546 12.6929 7.50428 11.8037C7.5431 10.9146 7.84472 10.0569 8.371 9.33912C8.89727 8.62137 9.62457 8.0758 10.4609 7.77139C11.2972 7.46699 12.2051 7.41743 13.0696 7.62897C13.9341 7.84051 14.7165 8.30366 15.3177 8.95985C15.919 9.61604 16.3122 10.4358 16.4476 11.3155C16.583 12.1951 16.4545 13.0952 16.0784 13.9018C15.5731 14.9826 14.6596 15.8188 13.5385 16.2269C12.4173 16.6349 11.18 16.5815 10.0982 16.0784ZM13.0169 9.56543L13.4713 13.915C13.4852 14.047 13.4637 14.1803 13.4092 14.3014C13.3547 14.4224 13.269 14.5268 13.161 14.6039C13.0529 14.681 12.9263 14.728 12.7941 14.7402C12.6619 14.7523 12.5289 14.7292 12.4086 14.6731L9.68965 13.4053C9.50937 13.3212 9.36987 13.169 9.30184 12.9821C9.23381 12.7951 9.24281 12.5889 9.32688 12.4086C9.41094 12.2283 9.56318 12.0888 9.75009 12.0208C9.93701 11.9527 10.1433 11.9618 10.3236 12.0458L11.8421 12.7539L11.5254 9.72228C11.5132 9.6234 11.5208 9.52308 11.5478 9.42717C11.5748 9.33127 11.6206 9.2417 11.6826 9.16371C11.7446 9.08571 11.8215 9.02085 11.9089 8.97292C11.9962 8.92498 12.0922 8.89492 12.1913 8.8845C12.2904 8.87408 12.3906 8.88351 12.486 8.91223C12.5814 8.94095 12.6701 8.98839 12.7469 9.05179C12.8238 9.11518 12.8873 9.19325 12.9336 9.28144C12.98 9.36963 13.0083 9.46617 13.0169 9.56543Z" fill="#FF366A"/>
</g>
<defs>
<clipPath id="clip0_278_1805">
<rect width="18" height="18" fill="white" transform="matrix(0.906308 0.422618 0.422618 -0.906308 0.0396652 16.3532)"/>
</clipPath>
</defs>
</svg>
