<svg width="18" height="18" viewBox="0 0 18 18" fill="none" xmlns="http://www.w3.org/2000/svg">
<g clip-path="url(#clip0_278_1685)">
<path d="M9 8.99995C9.89002 8.99995 10.76 8.73603 11.5001 8.24157C12.2401 7.7471 12.8169 7.0443 13.1575 6.22203C13.4981 5.39976 13.5872 4.49496 13.4135 3.62205C13.2399 2.74913 12.8113 1.94731 12.182 1.31797C11.5526 0.688636 10.7508 0.260052 9.87791 0.0864187C9.00499 -0.0872148 8.10019 0.0019002 7.27792 0.342495C6.45566 0.683089 5.75285 1.25987 5.25839 1.99989C4.76392 2.73991 4.5 3.60994 4.5 4.49995C4.50119 5.69306 4.97568 6.83696 5.81934 7.68062C6.66299 8.52427 7.80689 8.99876 9 8.99995ZM9 1.49995C9.59334 1.49995 10.1734 1.6759 10.6667 2.00554C11.1601 2.33519 11.5446 2.80372 11.7716 3.3519C11.9987 3.90008 12.0581 4.50328 11.9424 5.08522C11.8266 5.66717 11.5409 6.20172 11.1213 6.62127C10.7018 7.04083 10.1672 7.32655 9.58527 7.44231C9.00333 7.55806 8.40013 7.49865 7.85195 7.27159C7.30377 7.04453 6.83524 6.66001 6.50559 6.16666C6.17595 5.67332 6 5.0933 6 4.49995C6 3.7043 6.31607 2.94124 6.87868 2.37863C7.44129 1.81602 8.20435 1.49995 9 1.49995Z" fill="#FF366A"/>
<path d="M8.99999 10.5005C7.21039 10.5024 5.49465 11.2142 4.22921 12.4797C2.96377 13.7451 2.25198 15.4609 2.24999 17.2505C2.24999 17.4494 2.32901 17.6401 2.46966 17.7808C2.61031 17.9214 2.80108 18.0005 2.99999 18.0005C3.1989 18.0005 3.38967 17.9214 3.53032 17.7808C3.67097 17.6401 3.74999 17.4494 3.74999 17.2505C3.74999 15.8581 4.30312 14.5227 5.28768 13.5381C6.27225 12.5536 7.60761 12.0005 8.99999 12.0005C10.3924 12.0005 11.7277 12.5536 12.7123 13.5381C13.6969 14.5227 14.25 15.8581 14.25 17.2505C14.25 17.4494 14.329 17.6401 14.4697 17.7808C14.6103 17.9214 14.8011 18.0005 15 18.0005C15.1989 18.0005 15.3897 17.9214 15.5303 17.7808C15.671 17.6401 15.75 17.4494 15.75 17.2505C15.748 15.4609 15.0362 13.7451 13.7708 12.4797C12.5053 11.2142 10.7896 10.5024 8.99999 10.5005Z" fill="#FF366A"/>
</g>
<defs>
<clipPath id="clip0_278_1685">
<rect width="18" height="18" fill="white"/>
</clipPath>
</defs>
</svg>
