<svg width="22" height="22" viewBox="0 0 22 22" fill="none" xmlns="http://www.w3.org/2000/svg">
<g clip-path="url(#clip0_321_7336)">
<path d="M18.0357 2.52833C16.8743 1.56185 15.5253 0.846398 14.0737 0.427058C12.6221 0.00771705 11.0993 -0.106422 9.60144 0.0918336C6.83041 0.451825 4.30025 1.85291 2.5247 4.01059C0.749151 6.16827 -0.13869 8.92082 0.0414536 11.7093C0.221598 14.4978 1.45622 17.1132 3.49464 19.0245C5.53306 20.9358 8.22246 21.9997 11.0168 22.0002H17.4169C18.6321 21.9987 19.797 21.5154 20.6562 20.6561C21.5155 19.7969 21.9988 18.632 22.0003 17.4168V10.3668V10.309C21.9033 8.81066 21.5016 7.34785 20.82 6.01003C20.1383 4.67221 19.1909 3.4875 18.0357 2.52833ZM7.33361 6.41683H11.0003C11.2434 6.41683 11.4765 6.51341 11.6485 6.68532C11.8204 6.85723 11.9169 7.09038 11.9169 7.3335C11.9169 7.57662 11.8204 7.80977 11.6485 7.98168C11.4765 8.15359 11.2434 8.25017 11.0003 8.25017H7.33361C7.09049 8.25017 6.85733 8.15359 6.68543 7.98168C6.51352 7.80977 6.41694 7.57662 6.41694 7.3335C6.41694 7.09038 6.51352 6.85723 6.68543 6.68532C6.85733 6.51341 7.09049 6.41683 7.33361 6.41683ZM14.6669 15.5835H7.33361C7.09049 15.5835 6.85733 15.4869 6.68543 15.315C6.51352 15.1431 6.41694 14.9099 6.41694 14.6668C6.41694 14.4237 6.51352 14.1906 6.68543 14.0187C6.85733 13.8467 7.09049 13.7502 7.33361 13.7502H14.6669C14.9101 13.7502 15.1432 13.8467 15.3151 14.0187C15.487 14.1906 15.5836 14.4237 15.5836 14.6668C15.5836 14.9099 15.487 15.1431 15.3151 15.315C15.1432 15.4869 14.9101 15.5835 14.6669 15.5835ZM14.6669 11.9168H7.33361C7.09049 11.9168 6.85733 11.8203 6.68543 11.6483C6.51352 11.4764 6.41694 11.2433 6.41694 11.0002C6.41694 10.7571 6.51352 10.5239 6.68543 10.352C6.85733 10.1801 7.09049 10.0835 7.33361 10.0835H14.6669C14.9101 10.0835 15.1432 10.1801 15.3151 10.352C15.487 10.5239 15.5836 10.7571 15.5836 11.0002C15.5836 11.2433 15.487 11.4764 15.3151 11.6483C15.1432 11.8203 14.9101 11.9168 14.6669 11.9168Z" fill="#FF366A"/>
</g>
<defs>
<clipPath id="clip0_321_7336">
<rect width="22" height="22" fill="white"/>
</clipPath>
</defs>
</svg>
