<svg width="18" height="18" viewBox="0 0 18 18" fill="none" xmlns="http://www.w3.org/2000/svg">
<g clip-path="url(#clip0_314_3073)">
<path d="M13.125 1.43741C12.2805 1.45054 11.4543 1.6863 10.7301 2.12086C10.0058 2.55543 9.40902 3.17341 9 3.91241C8.59098 3.17341 7.9942 2.55543 7.26993 2.12086C6.54565 1.6863 5.71954 1.45054 4.875 1.43741C3.5287 1.4959 2.26028 2.08485 1.34684 3.07558C0.433394 4.06632 -0.0508137 5.3783 -7.64383e-07 6.72491C-7.64383e-07 10.1352 3.5895 13.8597 6.6 16.3849C7.27216 16.9498 8.12201 17.2594 9 17.2594C9.87798 17.2594 10.7278 16.9498 11.4 16.3849C14.4105 13.8597 18 10.1352 18 6.72491C18.0508 5.3783 17.5666 4.06632 16.6532 3.07558C15.7397 2.08485 14.4713 1.4959 13.125 1.43741Z" fill="#FF366A"/>
</g>
<defs>
<clipPath id="clip0_314_3073">
<rect width="18" height="18" fill="white"/>
</clipPath>
</defs>
</svg>
