<svg width="22" height="23" viewBox="0 0 22 23" fill="none" xmlns="http://www.w3.org/2000/svg">
<g clip-path="url(#clip0_321_7337)">
<path d="M19.7324 6.04766C20.1692 5.51119 20.3565 4.81865 20.2316 4.13587C20.0652 3.25801 19.3683 2.5167 18.4529 2.25335C18.3385 2.22408 18.2137 2.19482 18.0993 2.17531C18.0993 2.1363 18.0889 2.10703 18.0889 2.06802C17.9224 1.00483 17.0175 0.15623 15.8837 0.0196732C14.9787 -0.0973752 14.1049 0.234262 13.5432 0.878028C12.2742 0.546391 10.9636 0.458604 9.66332 0.634177C9.10162 0.195246 8.36309 0.000165101 7.63495 0.0879514C6.99004 0.175738 6.39713 0.507375 5.97065 1.02434C5.6794 1.38524 5.50257 1.7754 5.42975 2.21433C4.83684 2.61424 4.30635 3.07268 3.82786 3.57989C2.73566 3.75547 1.89311 4.54554 1.71628 5.55996C0.676088 5.91111 -0.0208387 6.82799 -3.48786e-05 7.85216C0.0415727 10.1346 1.95552 10.8857 2.88129 10.8857H19.5763C19.5867 10.8857 19.6075 10.8857 19.6387 10.8857H19.6699C20.9702 10.7686 22 9.70542 22 8.45691C22 7.2279 21.0118 6.19397 19.7324 6.04766Z" fill="#FF366A"/>
<path d="M21.5631 13.6361L21.5527 13.8605C21.5007 16.5721 19.8884 19.0008 17.1319 20.5517L17.1215 20.5908C16.9759 21.9368 15.582 23 13.9281 23H8.37351C7.44774 23 6.56358 22.6781 5.96027 22.1026C5.53379 21.7027 5.26334 21.1857 5.18013 20.659C2.34041 19.1276 0.624098 16.6014 0.561687 13.8605V13.6361C0.551285 13.363 0.665706 13.0997 0.884145 12.8948C1.10259 12.69 1.40424 12.5632 1.7371 12.5632H20.3877C20.7102 12.5632 21.0222 12.69 21.2406 12.8948C21.4487 13.0997 21.5631 13.363 21.5631 13.6361Z" fill="#FF366A"/>
<path d="M15.2806 6.03775C15.083 6.62299 15.4471 7.30577 16.0504 7.53011C16.9033 7.75446 17.1426 6.73028 16.5184 6.22307C16.092 5.87193 15.5303 5.7939 15.2806 6.03775Z" fill="#FF366A"/>
<path d="M16.2791 7.81298C16.1855 7.81298 16.0815 7.80323 15.9775 7.77396C15.2181 7.4911 14.7917 6.67176 15.0309 5.96947L15.0933 5.87193C15.4574 5.52078 16.1543 5.59881 16.6952 6.0475C17.1217 6.38889 17.2569 6.98389 17.0177 7.40331C16.8616 7.66667 16.5912 7.81298 16.2791 7.81298ZM15.5094 6.1743C15.4054 6.61323 15.6862 7.1302 16.1543 7.30577C16.3311 7.35454 16.4768 7.30577 16.56 7.16921C16.6744 6.97413 16.6224 6.62299 16.352 6.4084C16.0399 6.15479 15.6758 6.08652 15.5094 6.1743Z" fill="#FF366A"/>
<path d="M17.1942 7.50085C17.0382 7.77396 16.7573 7.93978 16.4141 7.93978C16.31 7.93978 16.206 7.92027 16.102 7.89101C15.3011 7.59839 14.8642 6.74004 15.1034 6.01824L15.1658 5.91094C15.5715 5.53054 16.31 5.60857 16.8613 6.07676C17.3814 6.48643 17.423 7.12044 17.1942 7.50085Z" fill="white"/>
<path d="M5.12828 15.626C4.93064 16.2112 5.29471 16.894 5.89802 17.1183C6.75097 17.3427 6.99022 16.3185 6.3661 15.8113C5.93962 15.4601 5.38832 15.3821 5.12828 15.626Z" fill="#FF366A"/>
<path d="M6.54287 15.6357C6.01238 15.187 5.30505 15.109 4.94098 15.4601L4.87857 15.5577C4.63933 16.2502 5.0658 17.0696 5.82514 17.3622C5.92916 17.3914 6.03318 17.4012 6.1268 17.4012C6.43885 17.4012 6.7093 17.2549 6.85493 17.0013C7.10457 16.5721 6.96935 15.9869 6.54287 15.6357Z" fill="#FF366A"/>
<path d="M14.0949 4.06743C13.4708 4.29177 13.0443 5.07209 13.1587 5.76463C13.398 6.67175 14.4486 6.19381 14.5734 5.29644C14.6774 4.68193 14.459 4.13571 14.0949 4.06743Z" fill="#FF366A"/>
<path d="M13.6786 6.50594C13.3041 6.50594 13.0129 6.26208 12.9088 5.83291C12.7736 4.98431 13.2729 4.10644 14.0114 3.84309L14.0738 3.82358L14.1467 3.83333C14.6564 3.92112 14.958 4.58439 14.8332 5.33545C14.7396 5.95971 14.2611 6.47667 13.7202 6.50594C13.7098 6.50594 13.689 6.50594 13.6786 6.50594ZM14.1051 4.33079C13.6474 4.54538 13.3249 5.17939 13.4185 5.73537C13.4497 5.85242 13.5225 6.03774 13.6994 6.01823C13.9074 6.00848 14.2507 5.73537 14.3235 5.26717C14.3963 4.78923 14.2507 4.42833 14.1051 4.33079Z" fill="#FF366A"/>
<path d="M14.7602 5.28668C14.6561 6.00848 14.084 6.47667 13.5951 6.49618L13.5431 6.50593C13.1479 6.50593 12.8358 6.23282 12.711 5.78414C12.5654 4.91603 13.0855 3.99915 13.8552 3.72604L13.9176 3.70653L14.0008 3.71628C14.5625 3.80407 14.885 4.4966 14.7602 5.28668Z" fill="white"/>
<path d="M6.9174 17.0208C6.75097 17.2939 6.47011 17.45 6.12685 17.45C6.03323 17.45 5.91881 17.4402 5.8148 17.4109C5.00345 17.1086 4.57697 16.2697 4.81621 15.5382L4.88903 15.4309C5.2843 15.0407 6.02283 15.1187 6.58453 15.5967C7.09423 16.0064 7.13584 16.6404 6.9174 17.0208Z" fill="white"/>
</g>
<defs>
<clipPath id="clip0_321_7337">
<rect width="22" height="23" fill="white"/>
</clipPath>
</defs>
</svg>
