<svg width="16" height="16" viewBox="0 0 16 16" fill="none" xmlns="http://www.w3.org/2000/svg">
<path d="M12.5179 1.625H11.8929V1C11.8929 0.83424 11.827 0.675269 11.7098 0.558058C11.5926 0.440848 11.4336 0.375 11.2679 0.375C11.1021 0.375 10.9432 0.440848 10.8259 0.558058C10.7087 0.675269 10.6429 0.83424 10.6429 1V1.625H5.64288V1C5.64288 0.83424 5.57703 0.675269 5.45983 0.558058C5.34261 0.440848 5.18364 0.375 5.01788 0.375C4.85212 0.375 4.69315 0.440848 4.57594 0.558058C4.45873 0.675269 4.39288 0.83424 4.39288 1V1.625H3.76788C2.93939 1.62599 2.14511 1.95555 1.55927 2.54139C0.973435 3.12722 0.643876 3.9215 0.642883 4.75L0.642883 12.25C0.643876 13.0785 0.973435 13.8728 1.55927 14.4586C2.14511 15.0444 2.93939 15.374 3.76788 15.375H12.5179C13.3464 15.374 14.1407 15.0444 14.7265 14.4586C15.3123 13.8728 15.6419 13.0785 15.6429 12.25V4.75C15.6419 3.9215 15.3123 3.12722 14.7265 2.54139C14.1407 1.95555 13.3464 1.62599 12.5179 1.625ZM1.89288 4.75C1.89288 4.25272 2.09043 3.77581 2.44206 3.42417C2.79369 3.07254 3.2706 2.875 3.76788 2.875H12.5179C13.0152 2.875 13.4921 3.07254 13.8437 3.42417C14.1953 3.77581 14.3929 4.25272 14.3929 4.75V5.375H1.89288V4.75ZM12.5179 14.125H3.76788C3.2706 14.125 2.79369 13.9275 2.44206 13.5758C2.09043 13.2242 1.89288 12.7473 1.89288 12.25V6.625H14.3929V12.25C14.3929 12.7473 14.1953 13.2242 13.8437 13.5758C13.4921 13.9275 13.0152 14.125 12.5179 14.125Z" fill="black"/>
<path d="M8.14288 10.6875C8.66065 10.6875 9.08038 10.2678 9.08038 9.75C9.08038 9.23223 8.66065 8.8125 8.14288 8.8125C7.62512 8.8125 7.20538 9.23223 7.20538 9.75C7.20538 10.2678 7.62512 10.6875 8.14288 10.6875Z" fill="black"/>
<path d="M5.01776 10.6875C5.53553 10.6875 5.95526 10.2678 5.95526 9.75C5.95526 9.23223 5.53553 8.8125 5.01776 8.8125C4.49999 8.8125 4.08026 9.23223 4.08026 9.75C4.08026 10.2678 4.49999 10.6875 5.01776 10.6875Z" fill="black"/>
<path d="M11.2679 10.6875C11.7857 10.6875 12.2054 10.2678 12.2054 9.75C12.2054 9.23223 11.7857 8.8125 11.2679 8.8125C10.7502 8.8125 10.3304 9.23223 10.3304 9.75C10.3304 10.2678 10.7502 10.6875 11.2679 10.6875Z" fill="black"/>
</svg>
