<svg width="21" height="21" viewBox="0 0 21 21" fill="none" xmlns="http://www.w3.org/2000/svg">
<g clip-path="url(#clip0_199_1557)">
<path d="M13.6696 3.70269C12.3253 3.07579 10.8252 2.86163 9.35907 3.08729C7.89298 3.31294 6.52672 3.96827 5.43307 4.97042C4.33943 5.97256 3.56751 7.2765 3.21493 8.71735C2.86236 10.1582 2.94497 11.6712 3.45231 13.0651C3.95964 14.4591 4.86893 15.6712 6.06518 16.5483C7.26143 17.4255 8.69091 17.9282 10.1729 17.9929C11.6548 18.0576 13.1227 17.6814 14.3908 16.9118C15.6589 16.1423 16.6704 15.014 17.2973 13.6696C18.1357 11.8666 18.2246 9.80454 17.5445 7.93599C16.8644 6.06745 15.4709 4.545 13.6696 3.70269ZM7.85864 16.1644C6.73832 15.642 5.79807 14.7991 5.1568 13.7423C4.51553 12.6855 4.20203 11.4623 4.25595 10.2274C4.30987 8.99242 4.72878 7.80118 5.45972 6.80431C6.19066 5.80744 7.20079 5.0497 8.36237 4.62692C9.52396 4.20414 10.7848 4.1353 11.9855 4.42911C13.1862 4.72292 14.2729 5.36618 15.108 6.27756C15.9431 7.18893 16.4892 8.32748 16.6773 9.54923C16.8653 10.771 16.6868 12.021 16.1644 13.1414C15.4625 14.6424 14.1938 15.8037 12.6367 16.3704C11.0795 16.9371 9.3612 16.8631 7.85864 16.1644ZM12.6131 5.96846C11.7168 5.55053 10.7168 5.40775 9.73938 5.55819C8.76199 5.70862 7.85115 6.14551 7.12205 6.81361C6.39295 7.48171 5.87834 8.351 5.64329 9.31157C5.40824 10.2721 5.46331 11.2808 5.80154 12.2101C6.13976 13.1394 6.74595 13.9475 7.54345 14.5322C8.34095 15.117 9.29394 15.4521 10.2819 15.4952C11.2699 15.5384 12.2484 15.2876 13.0939 14.7746C13.9393 14.2615 14.6136 13.5093 15.0315 12.6131C15.5904 11.411 15.6497 10.0364 15.1963 8.79069C14.7429 7.54501 13.8139 6.53004 12.6131 5.96846ZM8.91518 13.8987C8.24299 13.5852 7.67884 13.0795 7.29408 12.4454C6.90932 11.8113 6.72122 11.0774 6.75357 10.3364C6.78592 9.59545 7.03727 8.88071 7.47583 8.28259C7.9144 7.68446 8.52047 7.22982 9.21743 6.97615C9.91438 6.72248 10.6709 6.68118 11.3913 6.85746C12.1117 7.03375 12.7637 7.41971 13.2648 7.96653C13.7659 8.51336 14.0935 9.19649 14.2064 9.92953C14.3192 10.6626 14.2121 11.4126 13.8987 12.0848C13.4776 12.9855 12.7163 13.6823 11.782 14.0224C10.8478 14.3624 9.8167 14.3179 8.91518 13.8987ZM11.3474 8.47118L11.7261 12.0958C11.7376 12.2058 11.7198 12.3169 11.6744 12.4178C11.6289 12.5187 11.5575 12.6057 11.4675 12.6699C11.3774 12.7341 11.2719 12.7733 11.1618 12.7835C11.0516 12.7936 10.9407 12.7743 10.8405 12.7276L8.57471 11.6711C8.42448 11.601 8.30823 11.4741 8.25154 11.3184C8.19484 11.1626 8.20235 10.9907 8.2724 10.8405C8.34245 10.6902 8.46932 10.574 8.62508 10.5173C8.78084 10.4606 8.95275 10.4681 9.10298 10.5382L10.3684 11.1282L10.1045 8.60189C10.0943 8.51949 10.1007 8.43588 10.1232 8.35597C10.1457 8.27605 10.1839 8.20141 10.2355 8.13641C10.2872 8.07142 10.3513 8.01737 10.4241 7.97742C10.4968 7.93747 10.5769 7.91242 10.6594 7.90374C10.742 7.89505 10.8255 7.90291 10.905 7.92685C10.9845 7.95078 11.0584 7.99032 11.1225 8.04314C11.1865 8.09597 11.2394 8.16103 11.278 8.23452C11.3166 8.30801 11.3402 8.38847 11.3474 8.47118Z" fill="black"/>
</g>
<defs>
<clipPath id="clip0_199_1557">
<rect width="15" height="15" fill="white" transform="matrix(0.906308 0.422618 0.422618 -0.906308 0.533051 14.1277)"/>
</clipPath>
</defs>
</svg>
