<svg width="15" height="15" viewBox="0 0 15 15" fill="none" xmlns="http://www.w3.org/2000/svg">
<g clip-path="url(#clip0_199_1572)">
<path d="M7.49994 0.624992V4.37499C7.49903 5.09512 7.24988 5.79292 6.79449 6.35077C6.3391 6.90863 5.70531 7.29243 4.99994 7.43749V14.375C4.99994 14.5408 4.93409 14.6997 4.81688 14.8169C4.69967 14.9341 4.5407 15 4.37494 15C4.20918 15 4.05021 14.9341 3.933 14.8169C3.81579 14.6997 3.74994 14.5408 3.74994 14.375V7.43749C3.04457 7.29243 2.41078 6.90863 1.95539 6.35077C1.5 5.79292 1.25085 5.09512 1.24994 4.37499V0.624992C1.24994 0.459232 1.31579 0.300261 1.433 0.183051C1.55021 0.0658404 1.70918 -7.62939e-06 1.87494 -7.62939e-06C2.0407 -7.62939e-06 2.19967 0.0658404 2.31688 0.183051C2.43409 0.300261 2.49994 0.459232 2.49994 0.624992V4.37499C2.50154 4.7614 2.62249 5.13789 2.84624 5.45293C3.07 5.76797 3.38562 6.00619 3.74994 6.13499V0.624992C3.74994 0.459232 3.81579 0.300261 3.933 0.183051C4.05021 0.0658404 4.20918 -7.62939e-06 4.37494 -7.62939e-06C4.5407 -7.62939e-06 4.69967 0.0658404 4.81688 0.183051C4.93409 0.300261 4.99994 0.459232 4.99994 0.624992V6.13499C5.36426 6.00619 5.67988 5.76797 5.90363 5.45293C6.12739 5.13789 6.24834 4.7614 6.24994 4.37499V0.624992C6.24994 0.459232 6.31579 0.300261 6.433 0.183051C6.55021 0.0658404 6.70918 -7.62939e-06 6.87494 -7.62939e-06C7.0407 -7.62939e-06 7.19967 0.0658404 7.31688 0.183051C7.43409 0.300261 7.49994 0.459232 7.49994 0.624992ZM13.7499 6.24999C13.722 7.43777 13.4265 8.60395 12.8854 9.66171C12.3444 10.7195 11.5717 11.6416 10.6249 12.3594V14.375C10.6249 14.5408 10.5591 14.6997 10.4419 14.8169C10.3247 14.9341 10.1657 15 9.99994 15C9.83418 15 9.67521 14.9341 9.558 14.8169C9.44079 14.6997 9.37494 14.5408 9.37494 14.375V1.24999C9.36933 1.01516 9.4335 0.783934 9.55933 0.585573C9.68515 0.387212 9.86698 0.230624 10.0818 0.135617C10.3286 0.0352206 10.5993 0.00888622 10.8608 0.0598325C11.1223 0.110779 11.3633 0.236799 11.5543 0.422492C13.0039 2.01309 13.7896 4.0983 13.7499 6.24999ZM12.4999 6.24999C12.5177 4.42009 11.8486 2.65004 10.6249 1.28937V10.6687C11.7962 9.49264 12.468 7.90955 12.4999 6.24999Z" fill="black"/>
</g>
<defs>
<clipPath id="clip0_199_1572">
<rect width="15" height="15" fill="white"/>
</clipPath>
</defs>
</svg>
