<svg width="15" height="16" viewBox="0 0 15 16" fill="none" xmlns="http://www.w3.org/2000/svg">
<g clip-path="url(#clip0_199_1567)">
<path d="M7.5 7.87496C8.24168 7.87496 8.9667 7.65503 9.58339 7.24297C10.2001 6.83092 10.6807 6.24525 10.9645 5.56003C11.2484 4.8748 11.3226 4.1208 11.1779 3.39337C11.0333 2.66595 10.6761 1.99776 10.1517 1.47331C9.6272 0.948866 8.95902 0.591713 8.23159 0.447019C7.50416 0.302324 6.75016 0.376587 6.06494 0.660415C5.37971 0.944244 4.79404 1.42489 4.38199 2.04158C3.96993 2.65826 3.75 3.38328 3.75 4.12496C3.75099 5.11922 4.1464 6.07247 4.84945 6.77552C5.55249 7.47856 6.50574 7.87397 7.5 7.87496ZM7.5 1.62496C7.99445 1.62496 8.4778 1.77159 8.88893 2.04629C9.30005 2.32099 9.62048 2.71144 9.8097 3.16826C9.99892 3.62507 10.0484 4.12774 9.95196 4.61269C9.8555 5.09764 9.6174 5.5431 9.26777 5.89273C8.91814 6.24236 8.47268 6.48046 7.98773 6.57693C7.50277 6.67339 7.00011 6.62388 6.54329 6.43466C6.08648 6.24544 5.69603 5.92501 5.42133 5.51389C5.14662 5.10277 5 4.61942 5 4.12496C5 3.46192 5.26339 2.82604 5.73223 2.3572C6.20107 1.88836 6.83696 1.62496 7.5 1.62496Z" fill="black"/>
<path d="M7.5 9.12538C6.00867 9.12704 4.57889 9.7202 3.52435 10.7747C2.46982 11.8293 1.87665 13.259 1.875 14.7504C1.875 14.9161 1.94085 15.0751 2.05806 15.1923C2.17527 15.3095 2.33424 15.3754 2.5 15.3754C2.66576 15.3754 2.82473 15.3095 2.94194 15.1923C3.05915 15.0751 3.125 14.9161 3.125 14.7504C3.125 13.5901 3.58594 12.4773 4.40641 11.6568C5.22688 10.8363 6.33968 10.3754 7.5 10.3754C8.66032 10.3754 9.77312 10.8363 10.5936 11.6568C11.4141 12.4773 11.875 13.5901 11.875 14.7504C11.875 14.9161 11.9408 15.0751 12.0581 15.1923C12.1753 15.3095 12.3342 15.3754 12.5 15.3754C12.6658 15.3754 12.8247 15.3095 12.9419 15.1923C13.0592 15.0751 13.125 14.9161 13.125 14.7504C13.1233 13.259 12.5302 11.8293 11.4756 10.7747C10.4211 9.7202 8.99133 9.12704 7.5 9.12538Z" fill="black"/>
</g>
<defs>
<clipPath id="clip0_199_1567">
<rect y="0.375" width="15" height="15" rx="7.5" fill="white"/>
</clipPath>
</defs>
</svg>
