<svg width="19" height="16" xmlns="http://www.w3.org/2000/svg" xmlns:xlink="http://www.w3.org/1999/xlink" xml:space="preserve" overflow="hidden"><defs><clipPath id="clip0"><rect x="630" y="352" width="19" height="16"/></clipPath><clipPath id="clip1"><rect x="631" y="352" width="18" height="16"/></clipPath><clipPath id="clip2"><rect x="631" y="352" width="18" height="16"/></clipPath><clipPath id="clip3"><path d="M630.143 363.698 643.588 369.864 649.858 356.641 636.413 350.475Z" fill-rule="nonzero" clip-rule="nonzero"/></clipPath></defs><g clip-path="url(#clip0)" transform="translate(-630 -352)"><g clip-path="url(#clip1)"><g clip-path="url(#clip2)"><g clip-path="url(#clip3)"><path d="M13.2959 3.60146C11.9883 2.9917 10.5292 2.7834 9.1032 3.00289 7.67719 3.22237 6.34829 3.85978 5.28454 4.83453 4.22079 5.80928 3.46998 7.07757 3.12704 8.47903 2.78411 9.88048 2.86446 11.3521 3.35793 12.7079 3.85139 14.0638 4.73582 15.2428 5.89936 16.0959 7.06291 16.9491 8.45331 17.4381 9.89478 17.501 11.3362 17.5639 12.7639 17.198 13.9974 16.4494 15.2308 15.701 16.2146 14.6035 16.8244 13.2959 17.6399 11.5422 17.7264 9.53649 17.0648 7.71903 16.4033 5.90157 15.0479 4.42074 13.2959 3.60146ZM7.64379 15.7225C6.5541 15.2144 5.63956 14.3945 5.01582 13.3666 4.39208 12.3387 4.08715 11.1489 4.1396 9.94779 4.19204 8.74658 4.5995 7.5879 5.31046 6.61829 6.02141 5.64867 7.00393 4.91165 8.13375 4.50042 9.26358 4.0892 10.49 4.02224 11.6578 4.30802 12.8257 4.5938 13.8827 5.21947 14.695 6.10594 15.5072 6.99239 16.0384 8.09982 16.2214 9.28816 16.4042 10.4765 16.2306 11.6924 15.7225 12.7821 15.0398 14.2421 13.8058 15.3716 12.2912 15.9228 10.7766 16.4741 9.10527 16.4021 7.64379 15.7225ZM12.2683 5.80529C11.3965 5.39878 10.4238 5.25991 9.47311 5.40623 8.52244 5.55255 7.63651 5.9775 6.92734 6.62733 6.21817 7.27717 5.71763 8.12269 5.48901 9.057 5.26038 9.99127 5.31395 10.9724 5.64293 11.8763 5.9719 12.7802 6.56152 13.5662 7.33722 14.1349 8.11292 14.7037 9.03985 15.0297 10.0008 15.0716 10.9618 15.1136 11.9135 14.8697 12.7359 14.3707 13.5582 13.8716 14.2141 13.14 14.6206 12.2683 15.1642 11.099 15.2219 9.76201 14.7808 8.55036 14.3398 7.33874 13.4362 6.35151 12.2683 5.80529ZM8.67145 13.5187C8.01763 13.2138 7.46891 12.7219 7.09467 12.1052 6.72043 11.4884 6.53747 10.7746 6.56893 10.0538 6.6004 9.33312 6.84488 8.63792 7.27145 8.05615 7.69803 7.47437 8.28753 7.03216 8.96543 6.78543 9.64333 6.53869 10.3792 6.49852 11.0799 6.66998 11.7806 6.84145 12.4148 7.21686 12.9022 7.74873 13.3896 8.28061 13.7082 8.94507 13.818 9.65807 13.9277 10.3711 13.8236 11.1006 13.5187 11.7544 13.1091 12.6305 12.3686 13.3082 11.4599 13.639 10.5512 13.9697 9.54832 13.9265 8.67145 13.5187ZM11.0372 8.23959 11.4055 11.7651C11.4167 11.8721 11.3994 11.9802 11.3552 12.0783 11.311 12.1765 11.2415 12.2611 11.154 12.3235 11.0664 12.386 10.9637 12.4241 10.8566 12.434 10.7495 12.4438 10.6416 12.4251 10.5441 12.3796L8.34029 11.352C8.19416 11.2838 8.08109 11.1604 8.02595 11.009 7.9708 10.8574 7.97811 10.6902 8.04624 10.5441 8.11438 10.3979 8.23778 10.2849 8.38928 10.2298 8.54078 10.1746 8.70799 10.1819 8.85411 10.2501L10.0849 10.824 9.82825 8.36672C9.81833 8.28658 9.82456 8.20525 9.84644 8.12753 9.86833 8.04979 9.90548 7.97719 9.95567 7.91397 10.006 7.85075 10.0683 7.79818 10.1391 7.75933 10.2098 7.72047 10.2877 7.6961 10.368 7.68766 10.4483 7.67921 10.5295 7.68685 10.6069 7.71014 10.6842 7.73341 10.7561 7.77187 10.8184 7.82325 10.8807 7.87463 10.9321 7.93791 10.9697 8.0094 11.0072 8.08088 11.0302 8.15914 11.0372 8.23959Z" fill="#000000" fill-rule="nonzero" fill-opacity="1" transform="matrix(1.01679 0 0 1 629.616 349.957)"/></g></g></g></g></svg>