<svg width="12" height="12" viewBox="0 0 12 12" fill="none" xmlns="http://www.w3.org/2000/svg">
<g clip-path="url(#clip0_205_1296)">
<path d="M6 5.99997C6.59334 5.99997 7.17336 5.82402 7.66671 5.49438C8.16006 5.16473 8.54458 4.6962 8.77164 4.14802C8.9987 3.59984 9.05811 2.99664 8.94236 2.4147C8.8266 1.83276 8.54088 1.29821 8.12132 0.878649C7.70176 0.459091 7.16721 0.173369 6.58527 0.0576131C6.00333 -0.0581426 5.40013 0.00126743 4.85195 0.22833C4.30377 0.455393 3.83524 0.839911 3.50559 1.33326C3.17595 1.82661 3 2.40663 3 2.99997C3.00079 3.79537 3.31712 4.55798 3.87956 5.12041C4.44199 5.68285 5.20459 5.99917 6 5.99997ZM6 0.999969C6.39556 0.999969 6.78224 1.11727 7.11114 1.33703C7.44004 1.55679 7.69638 1.86915 7.84776 2.2346C7.99914 2.60005 8.03874 3.00219 7.96157 3.39015C7.8844 3.77811 7.69392 4.13448 7.41421 4.41418C7.13451 4.69389 6.77814 4.88437 6.39018 4.96154C6.00222 5.03871 5.60009 4.9991 5.23463 4.84773C4.86918 4.69635 4.55682 4.44001 4.33706 4.11111C4.1173 3.78221 4 3.39553 4 2.99997C4 2.46954 4.21071 1.96083 4.58579 1.58576C4.96086 1.21068 5.46957 0.999969 6 0.999969Z" fill="black"/>
<path d="M6 7.00031C4.80693 7.00163 3.66311 7.47616 2.81948 8.31979C1.97585 9.16341 1.50132 10.3072 1.5 11.5003C1.5 11.6329 1.55268 11.7601 1.64645 11.8539C1.74021 11.9476 1.86739 12.0003 2 12.0003C2.13261 12.0003 2.25979 11.9476 2.35355 11.8539C2.44732 11.7601 2.5 11.6329 2.5 11.5003C2.5 10.572 2.86875 9.68181 3.52513 9.02543C4.1815 8.36905 5.07174 8.00031 6 8.00031C6.92826 8.00031 7.8185 8.36905 8.47487 9.02543C9.13125 9.68181 9.5 10.572 9.5 11.5003C9.5 11.6329 9.55268 11.7601 9.64645 11.8539C9.74021 11.9476 9.86739 12.0003 10 12.0003C10.1326 12.0003 10.2598 11.9476 10.3536 11.8539C10.4473 11.7601 10.5 11.6329 10.5 11.5003C10.4987 10.3072 10.0241 9.16341 9.18052 8.31979C8.33689 7.47616 7.19307 7.00163 6 7.00031Z" fill="black"/>
</g>
<defs>
<clipPath id="clip0_205_1296">
<rect width="12" height="12" fill="white"/>
</clipPath>
</defs>
</svg>
