<svg width="12" height="12" viewBox="0 0 12 12" fill="none" xmlns="http://www.w3.org/2000/svg">
<g clip-path="url(#clip0_205_1298)">
<path d="M6 0.499996V3.5C5.99927 4.0761 5.79995 4.63434 5.43564 5.08062C5.07133 5.52691 4.56429 5.83395 4 5.95V11.5C4 11.6326 3.94732 11.7598 3.85355 11.8535C3.75979 11.9473 3.63261 12 3.5 12C3.36739 12 3.24021 11.9473 3.14645 11.8535C3.05268 11.7598 3 11.6326 3 11.5V5.95C2.43571 5.83395 1.92867 5.52691 1.56436 5.08062C1.20005 4.63434 1.00073 4.0761 1 3.5V0.499996C1 0.367388 1.05268 0.240211 1.14645 0.146443C1.24021 0.0526746 1.36739 -3.8147e-06 1.5 -3.8147e-06C1.63261 -3.8147e-06 1.75979 0.0526746 1.85355 0.146443C1.94732 0.240211 2 0.367388 2 0.499996V3.5C2.00128 3.80913 2.09804 4.11031 2.27704 4.36235C2.45605 4.61438 2.70855 4.80495 3 4.908V0.499996C3 0.367388 3.05268 0.240211 3.14645 0.146443C3.24021 0.0526746 3.36739 -3.8147e-06 3.5 -3.8147e-06C3.63261 -3.8147e-06 3.75979 0.0526746 3.85355 0.146443C3.94732 0.240211 4 0.367388 4 0.499996V4.908C4.29145 4.80495 4.54395 4.61438 4.72296 4.36235C4.90196 4.11031 4.99872 3.80913 5 3.5V0.499996C5 0.367388 5.05268 0.240211 5.14645 0.146443C5.24021 0.0526746 5.36739 -3.8147e-06 5.5 -3.8147e-06C5.63261 -3.8147e-06 5.75979 0.0526746 5.85355 0.146443C5.94732 0.240211 6 0.367388 6 0.499996ZM11 5C10.9776 5.95022 10.7412 6.88316 10.3084 7.72937C9.87555 8.57558 9.25741 9.31326 8.5 9.8875V11.5C8.5 11.6326 8.44732 11.7598 8.35355 11.8535C8.25979 11.9473 8.13261 12 8 12C7.86739 12 7.74021 11.9473 7.64645 11.8535C7.55268 11.7598 7.5 11.6326 7.5 11.5V0.999996C7.49552 0.812128 7.54685 0.62715 7.64751 0.468461C7.74817 0.309772 7.89363 0.184502 8.0655 0.108496C8.26292 0.0281788 8.47947 0.00711127 8.68867 0.0478683C8.89787 0.0886253 9.09067 0.189441 9.2435 0.337996C10.4032 1.61047 11.0317 3.27864 11 5ZM10 5C10.0142 3.53607 9.47895 2.12004 8.5 1.0315V8.535C9.43704 7.59411 9.97444 6.32765 10 5Z" fill="black"/>
</g>
<defs>
<clipPath id="clip0_205_1298">
<rect width="12" height="12" fill="white"/>
</clipPath>
</defs>
</svg>
