<svg width="12" height="12" viewBox="0 0 12 12" fill="none" xmlns="http://www.w3.org/2000/svg">
<g clip-path="url(#clip0_205_1299)">
<path d="M6 3C5.60444 3 5.21776 3.1173 4.88886 3.33706C4.55996 3.55682 4.30362 3.86918 4.15224 4.23463C4.00087 4.60009 3.96126 5.00222 4.03843 5.39018C4.1156 5.77814 4.30608 6.13451 4.58579 6.41421C4.86549 6.69392 5.22186 6.8844 5.60982 6.96157C5.99778 7.03874 6.39992 6.99913 6.76537 6.84776C7.13082 6.69638 7.44318 6.44004 7.66294 6.11114C7.8827 5.78224 8 5.39556 8 5C8 4.46957 7.78929 3.96086 7.41421 3.58579C7.03914 3.21071 6.53043 3 6 3ZM6 6C5.80222 6 5.60888 5.94135 5.44443 5.83147C5.27998 5.72159 5.15181 5.56541 5.07612 5.38268C5.00043 5.19996 4.98063 4.99889 5.01922 4.80491C5.0578 4.61093 5.15304 4.43275 5.29289 4.29289C5.43275 4.15304 5.61093 4.0578 5.80491 4.01921C5.99889 3.98063 6.19996 4.00043 6.38268 4.07612C6.56541 4.15181 6.72159 4.27998 6.83147 4.44443C6.94135 4.60888 7 4.80222 7 5C7 5.26522 6.89464 5.51957 6.70711 5.70711C6.51957 5.89464 6.26522 6 6 6Z" fill="black"/>
<path d="M5.99991 12.0001C5.57888 12.0023 5.16347 11.9035 4.78844 11.7122C4.41342 11.5208 4.08971 11.2423 3.84441 10.9001C1.93891 8.27164 0.972412 6.29564 0.972412 5.02664C0.972412 3.69326 1.50209 2.4145 2.44493 1.47166C3.38777 0.528822 4.66654 -0.000859737 5.99991 -0.000859737C7.33329 -0.000859737 8.61205 0.528822 9.55489 1.47166C10.4977 2.4145 11.0274 3.69326 11.0274 5.02664C11.0274 6.29564 10.0609 8.27164 8.15541 10.9001C7.91011 11.2423 7.5864 11.5208 7.21138 11.7122C6.83636 11.9035 6.42094 12.0023 5.99991 12.0001ZM5.99991 1.09064C4.95612 1.09183 3.95542 1.507 3.21735 2.24508C2.47928 2.98315 2.0641 3.98385 2.06291 5.02764C2.06291 6.03264 3.00941 7.89114 4.72741 10.2606C4.87326 10.4615 5.0646 10.625 5.28577 10.7378C5.50694 10.8505 5.75166 10.9093 5.99991 10.9093C6.24816 10.9093 6.49288 10.8505 6.71406 10.7378C6.93523 10.625 7.12656 10.4615 7.27241 10.2606C8.99041 7.89114 9.93691 6.03264 9.93691 5.02764C9.93572 3.98385 9.52055 2.98315 8.78248 2.24508C8.0444 1.507 7.0437 1.09183 5.99991 1.09064Z" fill="black"/>
</g>
<defs>
<clipPath id="clip0_205_1299">
<rect width="12" height="12" fill="white"/>
</clipPath>
</defs>
</svg>
