<svg width="12" height="12" viewBox="0 0 12 12" fill="none" xmlns="http://www.w3.org/2000/svg">
<g clip-path="url(#clip0_205_1297)">
<path d="M6 12C4.81331 12 3.65328 11.6481 2.66658 10.9888C1.67989 10.3295 0.910851 9.39245 0.456726 8.2961C0.00259972 7.19974 -0.11622 5.99334 0.115291 4.82945C0.346802 3.66557 0.918247 2.59647 1.75736 1.75735C2.59648 0.918239 3.66558 0.346795 4.82946 0.115283C5.99335 -0.116228 7.19975 0.00259209 8.2961 0.456718C9.39246 0.910844 10.3295 1.67988 10.9888 2.66657C11.6481 3.65327 12 4.81331 12 6C11.9983 7.59077 11.3656 9.11589 10.2407 10.2407C9.1159 11.3656 7.59077 11.9983 6 12ZM6 0.999995C5.0111 0.999995 4.0444 1.29324 3.22215 1.84265C2.39991 2.39205 1.75904 3.17295 1.38061 4.08658C1.00217 5.00021 0.90315 6.00554 1.09608 6.97545C1.289 7.94535 1.76521 8.83627 2.46447 9.53553C3.16373 10.2348 4.05465 10.711 5.02455 10.9039C5.99446 11.0968 6.99979 10.9978 7.91342 10.6194C8.82705 10.241 9.60794 9.60009 10.1574 8.77785C10.7068 7.9556 11 6.9889 11 6C10.9985 4.67436 10.4713 3.40344 9.53393 2.46607C8.59656 1.5287 7.32564 1.00145 6 0.999995ZM6 10C5.20888 10 4.43552 9.7654 3.77772 9.32587C3.11993 8.88635 2.60724 8.26163 2.30448 7.53073C2.00173 6.79982 1.92252 5.99556 2.07686 5.21963C2.2312 4.44371 2.61217 3.73098 3.17158 3.17157C3.73099 2.61216 4.44372 2.23119 5.21964 2.07685C5.99557 1.92251 6.79983 2.00173 7.53074 2.30448C8.26164 2.60723 8.88636 3.11992 9.32588 3.77771C9.76541 4.43551 10 5.20887 10 6C9.99881 7.0605 9.577 8.07722 8.82711 8.82711C8.07723 9.57699 7.0605 9.9988 6 10ZM6 2.99999C5.40666 2.99999 4.82664 3.17594 4.33329 3.50559C3.83994 3.83523 3.45543 4.30377 3.22836 4.85194C3.0013 5.40012 2.94189 6.00332 3.05765 6.58527C3.1734 7.16721 3.45912 7.70176 3.87868 8.12132C4.29824 8.54087 4.83279 8.8266 5.41473 8.94235C5.99668 9.05811 6.59987 8.9987 7.14805 8.77163C7.69623 8.54457 8.16477 8.16005 8.49441 7.66671C8.82406 7.17336 9 6.59334 9 6C8.99921 5.20459 8.68288 4.44199 8.12045 3.87955C7.55801 3.31711 6.79541 3.00079 6 2.99999ZM5.9285 7.7575L7.4285 5.2575C7.47408 5.18164 7.49871 5.09504 7.49987 5.00655C7.50102 4.91806 7.47868 4.83084 7.4351 4.75382C7.39153 4.67679 7.32829 4.6127 7.25185 4.56811C7.17541 4.52352 7.0885 4.50001 7 4.5H5C4.86739 4.5 4.74022 4.55267 4.64645 4.64644C4.55268 4.74021 4.5 4.86739 4.5 5C4.5 5.1326 4.55268 5.25978 4.64645 5.35355C4.74022 5.44732 4.86739 5.5 5 5.5H6.117L5.0715 7.2425C5.03627 7.2988 5.01261 7.36156 5.0019 7.42711C4.99119 7.49266 4.99364 7.55969 5.00913 7.62428C5.02461 7.68887 5.05281 7.74973 5.09207 7.80331C5.13133 7.85688 5.18088 7.90209 5.23781 7.9363C5.29474 7.97052 5.35792 7.99304 5.42365 8.00257C5.48939 8.01209 5.55636 8.00842 5.62066 7.99178C5.68496 7.97513 5.7453 7.94584 5.79816 7.90561C5.85101 7.86539 5.89532 7.81504 5.9285 7.7575Z" fill="black"/>
</g>
<defs>
<clipPath id="clip0_205_1297">
<rect width="12" height="12" fill="white"/>
</clipPath>
</defs>
</svg>
