<svg width="18" height="19" viewBox="0 0 18 19" fill="none" xmlns="http://www.w3.org/2000/svg">
<g clip-path="url(#clip0_321_7737)">
<path d="M15.9036 3.49687L15.9064 3.51168C15.9692 3.87082 15.8716 4.23953 15.6335 4.5319C15.4814 4.71868 15.4433 4.97358 15.5342 5.19668C15.625 5.41978 15.8303 5.57554 16.0697 5.60291C16.8334 5.69024 17.3408 6.29701 17.3408 6.91928C17.3408 7.53609 16.8366 8.13848 16.1122 8.24095C16.082 8.24521 16.0516 8.24736 16.0211 8.24736H2.35733C2.2163 8.24736 2.04581 8.21179 1.88729 8.15755C1.7169 8.09925 1.51144 8.00291 1.31565 7.84839L1.69509 7.36763L1.31565 7.84839C0.970751 7.57619 0.67226 7.13701 0.65888 6.41318C0.658876 6.41295 0.658871 6.41271 0.658867 6.41247L0.658838 6.41112L0.658838 6.4111C0.648593 5.90675 0.990614 5.38429 1.61495 5.17352L1.82284 5.78938L1.61495 5.17352C1.84373 5.09629 2.01197 4.90013 2.05344 4.66224C2.14381 4.14379 2.5844 3.68455 3.2364 3.57974C3.3798 3.55669 3.51156 3.48692 3.61122 3.38128C3.97159 2.99928 4.36883 2.65637 4.81099 2.35813C4.96114 2.25686 5.063 2.09826 5.09264 1.91958C5.13219 1.68118 5.225 1.46895 5.3908 1.26086L5.40082 1.24859C5.642 0.960572 5.9686 0.779493 6.31816 0.727507C6.32623 0.726307 6.33432 0.725259 6.34243 0.724364C6.76928 0.677229 7.19004 0.795648 7.50044 1.0382C7.64036 1.14754 7.81849 1.19579 7.99446 1.17203C8.9704 1.04025 9.9562 1.10573 10.9141 1.35606C11.156 1.41929 11.4129 1.34014 11.5774 1.1517C11.8858 0.798211 12.3782 0.601905 12.9079 0.669382L12.9168 0.670455L12.8391 1.31579L12.9168 0.670455C13.5528 0.747056 14.0197 1.20193 14.1351 1.72168C14.14 1.74406 14.1438 1.7667 14.1464 1.78948L14.1485 1.8069C14.149 1.81075 14.1495 1.81461 14.1499 1.81847L15.9036 3.49687ZM15.9036 3.49687C15.8158 3.05579 15.4558 2.64321 14.9427 2.48513C14.9317 2.48174 14.9206 2.47864 14.9094 2.47584C14.8331 2.4567 14.7597 2.4401 14.6976 2.42952L14.5884 3.07027L14.6976 2.42951C14.4128 2.38096 14.1965 2.15384 14.1561 1.8751M15.9036 3.49687L14.1561 1.8751M14.1561 1.8751C14.1566 1.87048 14.1568 1.86753 14.1567 1.86644L14.1551 1.85274L14.1541 1.84573L14.1538 1.84337L14.1534 1.84069M14.1561 1.8751L14.1534 1.84069M14.1534 1.84069L14.1533 1.83998L14.1532 1.83948L14.1532 1.83933M14.1534 1.84069L14.1532 1.83933M14.1532 1.83933L14.1532 1.83923L14.1532 1.83916V1.83915L14.1531 1.83896L14.1532 1.83933ZM-0.000117315 6.42449C0.0339252 8.29194 1.59988 8.90645 2.35733 8.90645H16.0935C17.1573 8.81068 17.9999 7.9408 17.9999 6.91928C17.9999 6.36629 17.7554 5.86158 17.3612 5.49937L-0.000117315 6.42449ZM-0.000117315 6.42449C-0.0171386 5.58653 0.553074 4.83636 1.40414 4.54906L-0.000117315 6.42449ZM14.1516 1.83528C14.1512 1.83067 14.1507 1.82606 14.1503 1.82146L14.1507 1.82396L14.1519 1.83131L14.1523 1.83373L14.1526 1.83513L14.1516 1.83528ZM16.0617 8.25645H2.35733C2.12044 8.25645 1.68242 8.14944 1.31002 7.85553C0.963783 7.58227 0.663047 7.14073 0.649776 6.41264L0.649749 6.41129C0.639179 5.89096 0.996167 5.37282 1.61204 5.16491C1.83767 5.08874 2.00359 4.89528 2.04448 4.66068C2.13695 4.13021 2.58785 3.67479 3.23496 3.57076C3.37638 3.54803 3.50632 3.47922 3.60461 3.37504C3.9654 2.99259 4.36315 2.64924 4.80591 2.3506C4.95399 2.25072 5.05444 2.0943 5.08367 1.91809C5.12405 1.67472 5.21946 1.45948 5.38861 1.24905C5.6344 0.952432 5.9701 0.766862 6.32949 0.716689C6.76218 0.665823 7.19037 0.784363 7.50604 1.03104C7.64403 1.13887 7.8197 1.18646 7.99325 1.16302C8.97041 1.03108 9.95739 1.09665 10.9164 1.34726C11.155 1.40962 11.4084 1.33156 11.5705 1.14572C11.8823 0.788352 12.3795 0.591822 12.9123 0.660724L12.9122 0.660749L12.9179 0.66143C13.5655 0.739428 14.0536 1.21341 14.1531 1.76544C14.1553 1.79008 14.158 1.80995 14.1598 1.82214C14.1791 2.12047 14.4008 2.36969 14.6992 2.42055C14.7646 2.43172 14.8435 2.4497 14.9267 2.47084C15.4518 2.62532 15.8266 3.04606 15.9141 3.50289C15.9263 3.57026 15.9328 3.63761 15.9339 3.70447C15.9391 4.00159 15.8375 4.29582 15.6406 4.53764C15.4905 4.72185 15.453 4.97323 15.5426 5.19325C15.6322 5.41327 15.8347 5.56688 16.0707 5.59388C16.4037 5.63196 16.6989 5.77354 16.9214 5.978C17.1933 6.22782 17.3499 6.56347 17.3499 6.91928C17.3499 7.5671 16.8073 8.17633 16.0617 8.25645Z" fill="#FF366A" stroke="#FF366A" stroke-width="1.3" stroke-linejoin="round"/>
<path fill-rule="evenodd" clip-rule="evenodd" d="M17.634 11.3404L17.6425 11.1568C17.6425 10.9334 17.5489 10.7179 17.3787 10.5503C17.1999 10.3827 16.9446 10.279 16.6808 10.279H1.42122C1.14888 10.279 0.902071 10.3827 0.723347 10.5503C0.544624 10.7179 0.451007 10.9334 0.459518 11.1568V11.3404C0.510581 13.5829 1.91484 15.6499 4.23824 16.9028C4.30633 17.3338 4.5276 17.7568 4.87654 18.084C5.37016 18.5548 6.09356 18.8182 6.85101 18.8182H11.3957C12.7489 18.8182 13.8893 17.9483 14.0085 16.847L14.017 16.8151C16.2723 15.5461 17.5914 13.559 17.634 11.3404ZM1.78383 11.5881H16.3114C16.1827 13.1558 15.2035 14.6454 13.3751 15.6741C13.0676 15.8472 12.8429 16.137 12.752 16.4779L12.7435 16.5098C12.7264 16.5742 12.7141 16.6399 12.707 16.7062C12.6798 16.9573 12.2853 17.5091 11.3957 17.5091H6.85101C6.37813 17.5091 5.99509 17.3418 5.78011 17.1367L5.78014 17.1367L5.77199 17.129C5.62881 16.9948 5.55259 16.8333 5.53129 16.6986C5.46755 16.2951 5.21913 15.9445 4.85961 15.7506C2.97303 14.7332 1.92572 13.1746 1.78383 11.5881Z" fill="#FF366A"/>
<path d="M12.5022 4.93997C12.3405 5.41881 12.6384 5.97745 13.132 6.161C13.8299 6.34455 14.0256 5.50659 13.515 5.0916C13.1661 4.8043 12.7065 4.74046 12.5022 4.93997Z" fill="#FF366A"/>
<path d="M13.3191 6.39244C13.2425 6.39244 13.1574 6.38445 13.0723 6.36051C12.4511 6.12908 12.1021 5.45871 12.2979 4.88411L12.3489 4.8043C12.6468 4.517 13.217 4.58085 13.6596 4.94795C14.0085 5.22727 14.1191 5.71409 13.9234 6.05725C13.7957 6.27273 13.5745 6.39244 13.3191 6.39244ZM12.6894 5.0517C12.6042 5.41083 12.834 5.8338 13.217 5.97745C13.3617 6.01735 13.4808 5.97745 13.5489 5.86572C13.6425 5.70611 13.6 5.41881 13.3787 5.24323C13.1234 5.03574 12.8255 4.97987 12.6894 5.0517Z" fill="#FF366A"/>
<path d="M14.068 6.13706C13.9404 6.36051 13.7106 6.49618 13.4298 6.49618C13.3446 6.49618 13.2595 6.48022 13.1744 6.45628C12.5191 6.21686 12.1617 5.51457 12.3574 4.92401L12.4085 4.83623C12.7404 4.52498 13.3446 4.58883 13.7957 4.9719C14.2212 5.30708 14.2553 5.82582 14.068 6.13706Z" fill="#FF366A"/>
<path d="M4.19584 12.7849C4.03414 13.2637 4.33201 13.8223 4.82563 14.0059C5.5235 14.1895 5.71924 13.3515 5.20861 12.9365C4.85967 12.6492 4.40861 12.5854 4.19584 12.7849Z" fill="#FF366A"/>
<path d="M5.35317 12.7929C4.91913 12.4257 4.3404 12.3619 4.04253 12.6492L3.99147 12.729C3.79572 13.2956 4.14466 13.966 4.76594 14.2054C4.85104 14.2294 4.93615 14.2373 5.01274 14.2373C5.26806 14.2373 5.48934 14.1176 5.60849 13.9101C5.81275 13.559 5.70211 13.0802 5.35317 12.7929Z" fill="#FF366A"/>
<path d="M11.5319 3.3279C11.0213 3.51145 10.6723 4.1499 10.7659 4.71652C10.9617 5.45871 11.8213 5.06766 11.9234 4.33345C12.0085 3.83068 11.8298 3.38376 11.5319 3.3279Z" fill="#FF366A"/>
<path d="M11.1916 5.32304C10.8852 5.32304 10.6469 5.12353 10.5618 4.77238C10.4512 4.07807 10.8597 3.35982 11.4639 3.14434L11.515 3.12838L11.5746 3.13636C11.9916 3.20819 12.2384 3.75087 12.1363 4.36537C12.0597 4.87613 11.6682 5.2991 11.2256 5.32304C11.2171 5.32304 11.2001 5.32304 11.1916 5.32304ZM11.5405 3.54337C11.1661 3.71895 10.9022 4.23768 10.9788 4.69258C11.0044 4.78834 11.0639 4.93997 11.2086 4.92401C11.3788 4.91603 11.6597 4.69258 11.7192 4.30951C11.7788 3.91846 11.6597 3.62318 11.5405 3.54337Z" fill="#FF366A"/>
<path d="M12.0765 4.32547C11.9914 4.91603 11.5233 5.2991 11.1233 5.31506L11.0808 5.32304C10.7573 5.32304 10.502 5.09958 10.3999 4.73248C10.2808 4.02221 10.7063 3.27203 11.3361 3.04858L11.3871 3.03262L11.4552 3.0406C11.9148 3.11242 12.1786 3.67904 12.0765 4.32547Z" fill="#FF366A"/>
</g>
<defs>
<clipPath id="clip0_321_7737">
<rect width="18" height="18.8182" fill="white"/>
</clipPath>
</defs>
</svg>
