<svg width="18" height="18" viewBox="0 0 18 18" fill="none" xmlns="http://www.w3.org/2000/svg">
<g clip-path="url(#clip0_350_2312)">
<path d="M13.125 1.4374C12.2804 1.45054 11.4543 1.68629 10.73 2.12085C10.0058 2.55542 9.40899 3.1734 8.99997 3.9124C8.59095 3.1734 7.99417 2.55542 7.2699 2.12085C6.54562 1.68629 5.71951 1.45054 4.87497 1.4374C3.52867 1.49589 2.26025 2.08484 1.34681 3.07558C0.433363 4.06631 -0.0508442 5.37829 -3.1282e-05 6.7249C-3.1282e-05 10.1352 3.58947 13.8597 6.59997 16.3849C7.27213 16.9497 8.12198 17.2594 8.99997 17.2594C9.87795 17.2594 10.7278 16.9497 11.4 16.3849C14.4105 13.8597 18 10.1352 18 6.7249C18.0508 5.37829 17.5666 4.06631 16.6531 3.07558C15.7397 2.08484 14.4713 1.49589 13.125 1.4374ZM10.4362 15.2374C10.0342 15.5759 9.52553 15.7616 8.99997 15.7616C8.4744 15.7616 7.96573 15.5759 7.56372 15.2374C3.71022 12.0042 1.49997 8.90215 1.49997 6.7249C1.4487 5.77594 1.77474 4.8452 2.40699 4.13568C3.03924 3.42615 3.92639 2.99541 4.87497 2.9374C5.82354 2.99541 6.7107 3.42615 7.34295 4.13568C7.97519 4.8452 8.30124 5.77594 8.24997 6.7249C8.24997 6.92381 8.32899 7.11458 8.46964 7.25523C8.61029 7.39588 8.80106 7.4749 8.99997 7.4749C9.19888 7.4749 9.38965 7.39588 9.5303 7.25523C9.67095 7.11458 9.74997 6.92381 9.74997 6.7249C9.6987 5.77594 10.0247 4.8452 10.657 4.13568C11.2892 3.42615 12.1764 2.99541 13.125 2.9374C14.0735 2.99541 14.9607 3.42615 15.5929 4.13568C16.2252 4.8452 16.5512 5.77594 16.5 6.7249C16.5 8.90215 14.2897 12.0042 10.4362 15.2344V15.2374Z" fill="#FF366A"/>
</g>
<defs>
<clipPath id="clip0_350_2312">
<rect width="18" height="18" fill="white"/>
</clipPath>
</defs>
</svg>
