<svg width="17" height="17" viewBox="0 0 17 17" fill="none" xmlns="http://www.w3.org/2000/svg">
<g clip-path="url(#clip0_321_7754)">
<path d="M13.4583 4.25035H10.144C9.86169 4.04912 9.5444 3.90213 9.20833 3.81685V3.54202L11.7087 2.37185C11.8113 2.30833 11.8958 2.21968 11.9545 2.11432C12.0132 2.00896 12.0439 1.89036 12.0439 1.76977C12.0439 1.64918 12.0132 1.53058 11.9545 1.42522C11.8958 1.31985 11.8113 1.23121 11.7087 1.16769L9.44208 0.105186C9.26511 0.0224891 9.07011 -0.0141568 8.87519 -0.00135053C8.68026 0.0114557 8.49173 0.0732991 8.3271 0.178439C8.16247 0.283579 8.02706 0.428608 7.93346 0.600063C7.83985 0.771519 7.79108 0.963844 7.79167 1.15919V3.81685C7.45577 3.90201 7.13869 4.04902 6.85667 4.25035H3.54167C2.6027 4.25148 1.70252 4.62498 1.03857 5.28893C0.374625 5.95287 0.00112473 6.85306 0 7.79202L0 14.8754C0 15.4389 0.223883 15.9794 0.622398 16.378C1.02091 16.7765 1.56141 17.0004 2.125 17.0004H14.875C15.4386 17.0004 15.9791 16.7765 16.3776 16.378C16.7761 15.9794 17 15.4389 17 14.8754V7.79202C16.9989 6.85306 16.6254 5.95287 15.9614 5.28893C15.2975 4.62498 14.3973 4.25148 13.4583 4.25035ZM15.453 7.08369H13.9237C13.3604 7.08225 12.8205 6.85849 12.4213 6.46106L11.6266 5.66702H13.4583C13.8963 5.66884 14.3229 5.80591 14.68 6.0595C15.037 6.31308 15.307 6.67079 15.453 7.08369ZM3.54167 5.66702H5.37342L4.57867 6.46106C4.1795 6.85849 3.63957 7.08225 3.07629 7.08369H1.547C1.69298 6.67079 1.96296 6.31308 2.32 6.0595C2.67705 5.80591 3.10373 5.66884 3.54167 5.66702ZM9.20833 15.5837H7.79167V13.4587C7.79167 13.2708 7.86629 13.0907 7.99913 12.9578C8.13197 12.825 8.31214 12.7504 8.5 12.7504C8.68786 12.7504 8.86803 12.825 9.00087 12.9578C9.13371 13.0907 9.20833 13.2708 9.20833 13.4587V15.5837ZM14.875 15.5837H10.625V13.4587C10.625 12.8951 10.4011 12.3546 10.0026 11.9561C9.60409 11.5576 9.06358 11.3337 8.5 11.3337C7.93641 11.3337 7.39591 11.5576 6.9974 11.9561C6.59888 12.3546 6.375 12.8951 6.375 13.4587V15.5837H2.125C1.93714 15.5837 1.75697 15.5091 1.62413 15.3762C1.49129 15.2434 1.41667 15.0632 1.41667 14.8754V8.50035H3.07629C3.54154 8.5015 4.00239 8.41037 4.43219 8.23225C4.86199 8.05413 5.2522 7.79255 5.58025 7.46265L7.49842 5.54519C7.76408 5.2796 8.12435 5.13041 8.5 5.13041C8.87565 5.13041 9.23592 5.2796 9.50158 5.54519L11.4197 7.46265C11.7478 7.79255 12.138 8.05413 12.5678 8.23225C12.9976 8.41037 13.4585 8.5015 13.9237 8.50035H15.5833V14.8754C15.5833 15.0632 15.5087 15.2434 15.3759 15.3762C15.243 15.5091 15.0629 15.5837 14.875 15.5837ZM4.95833 10.6254C4.95833 10.8132 4.88371 10.9934 4.75087 11.1262C4.61803 11.2591 4.43786 11.3337 4.25 11.3337H3.54167C3.3538 11.3337 3.17364 11.2591 3.0408 11.1262C2.90796 10.9934 2.83333 10.8132 2.83333 10.6254C2.83333 10.4375 2.90796 10.2573 3.0408 10.1245C3.17364 9.99165 3.3538 9.91702 3.54167 9.91702H4.25C4.43786 9.91702 4.61803 9.99165 4.75087 10.1245C4.88371 10.2573 4.95833 10.4375 4.95833 10.6254ZM4.95833 13.4587C4.95833 13.6465 4.88371 13.8267 4.75087 13.9596C4.61803 14.0924 4.43786 14.167 4.25 14.167H3.54167C3.3538 14.167 3.17364 14.0924 3.0408 13.9596C2.90796 13.8267 2.83333 13.6465 2.83333 13.4587C2.83333 13.2708 2.90796 13.0907 3.0408 12.9578C3.17364 12.825 3.3538 12.7504 3.54167 12.7504H4.25C4.43786 12.7504 4.61803 12.825 4.75087 12.9578C4.88371 13.0907 4.95833 13.2708 4.95833 13.4587ZM14.1667 10.6254C14.1667 10.8132 14.092 10.9934 13.9592 11.1262C13.8264 11.2591 13.6462 11.3337 13.4583 11.3337H12.75C12.5621 11.3337 12.382 11.2591 12.2491 11.1262C12.1163 10.9934 12.0417 10.8132 12.0417 10.6254C12.0417 10.4375 12.1163 10.2573 12.2491 10.1245C12.382 9.99165 12.5621 9.91702 12.75 9.91702H13.4583C13.6462 9.91702 13.8264 9.99165 13.9592 10.1245C14.092 10.2573 14.1667 10.4375 14.1667 10.6254ZM14.1667 13.4587C14.1667 13.6465 14.092 13.8267 13.9592 13.9596C13.8264 14.0924 13.6462 14.167 13.4583 14.167H12.75C12.5621 14.167 12.382 14.0924 12.2491 13.9596C12.1163 13.8267 12.0417 13.6465 12.0417 13.4587C12.0417 13.2708 12.1163 13.0907 12.2491 12.9578C12.382 12.825 12.5621 12.7504 12.75 12.7504H13.4583C13.6462 12.7504 13.8264 12.825 13.9592 12.9578C14.092 13.0907 14.1667 13.2708 14.1667 13.4587ZM9.91667 8.50035C9.91667 8.78054 9.83358 9.05444 9.67791 9.28741C9.52225 9.52038 9.301 9.70196 9.04213 9.80918C8.78327 9.91641 8.49843 9.94446 8.22362 9.8898C7.94882 9.83514 7.69639 9.70021 7.49827 9.50209C7.30014 9.30396 7.16522 9.05154 7.11055 8.77673C7.05589 8.50193 7.08395 8.21708 7.19117 7.95822C7.29839 7.69936 7.47997 7.4781 7.71294 7.32244C7.94591 7.16677 8.21981 7.08369 8.5 7.08369C8.87572 7.08369 9.23606 7.23294 9.50173 7.49862C9.76741 7.7643 9.91667 8.12463 9.91667 8.50035Z" fill="#FF366A"/>
</g>
<defs>
<clipPath id="clip0_321_7754">
<rect width="17" height="17" fill="white"/>
</clipPath>
</defs>
</svg>
