<svg width="18" height="18" viewBox="0 0 18 18" fill="none" xmlns="http://www.w3.org/2000/svg">
<g clip-path="url(#clip0_321_8783)">
<path d="M11.9998 6.0001C11.8592 5.85949 11.6685 5.78051 11.4696 5.78051C11.2707 5.78051 11.08 5.85949 10.9393 6.0001L8.99983 7.9396L7.06034 6.0001C6.91889 5.86348 6.72944 5.78788 6.53279 5.78959C6.33614 5.7913 6.14803 5.87018 6.00898 6.00923C5.86992 6.14829 5.79104 6.3364 5.78933 6.53305C5.78763 6.72969 5.86322 6.91915 5.99984 7.0606L7.93934 9.0001L5.99984 10.9396C5.86322 11.081 5.78763 11.2705 5.78933 11.4671C5.79104 11.6638 5.86992 11.8519 6.00898 11.991C6.14803 12.13 6.33614 12.2089 6.53279 12.2106C6.72944 12.2123 6.91889 12.1367 7.06034 12.0001L8.99983 10.0606L10.9393 12.0001C11.0808 12.1367 11.2702 12.2123 11.4669 12.2106C11.6635 12.2089 11.8516 12.13 11.9907 11.991C12.1297 11.8519 12.2086 11.6638 12.2103 11.4671C12.212 11.2705 12.1364 11.081 11.9998 10.9396L10.0603 9.0001L11.9998 7.0606C12.1404 6.91995 12.2194 6.72922 12.2194 6.53035C12.2194 6.33147 12.1404 6.14074 11.9998 6.0001Z" fill="#FF366A"/>
<path d="M9 0C7.21997 0 5.47991 0.527841 3.99987 1.51677C2.51983 2.50571 1.36628 3.91131 0.685088 5.55585C0.00389957 7.20038 -0.17433 9.00998 0.172937 10.7558C0.520204 12.5016 1.37737 14.1053 2.63604 15.364C3.89472 16.6226 5.49836 17.4798 7.24419 17.8271C8.99002 18.1743 10.7996 17.9961 12.4442 17.3149C14.0887 16.6337 15.4943 15.4802 16.4832 14.0001C17.4722 12.5201 18 10.78 18 9C17.9974 6.61384 17.0484 4.32616 15.3611 2.63889C13.6738 0.951621 11.3862 0.00258081 9 0V0ZM9 16.5C7.51664 16.5 6.0666 16.0601 4.83323 15.236C3.59986 14.4119 2.63856 13.2406 2.07091 11.8701C1.50325 10.4997 1.35473 8.99168 1.64411 7.53682C1.9335 6.08197 2.64781 4.74559 3.6967 3.6967C4.7456 2.64781 6.08197 1.9335 7.53683 1.64411C8.99168 1.35472 10.4997 1.50325 11.8701 2.0709C13.2406 2.63856 14.4119 3.59985 15.236 4.83322C16.0601 6.06659 16.5 7.51664 16.5 9C16.4978 10.9885 15.7069 12.8948 14.3009 14.3009C12.8948 15.7069 10.9885 16.4978 9 16.5Z" fill="#FF366A"/>
</g>
<defs>
<clipPath id="clip0_321_8783">
<rect width="18" height="18" fill="white"/>
</clipPath>
</defs>
</svg>
