<svg width="13" height="15" viewBox="0 0 13 15" fill="none" xmlns="http://www.w3.org/2000/svg">
<path d="M6.49994 0.624992V4.37499C6.49903 5.09512 6.24988 5.79292 5.79449 6.35077C5.3391 6.90863 4.70531 7.29243 3.99994 7.43749V14.375C3.99994 14.5408 3.93409 14.6997 3.81688 14.8169C3.69967 14.9341 3.5407 15 3.37494 15C3.20918 15 3.05021 14.9341 2.933 14.8169C2.81579 14.6997 2.74994 14.5408 2.74994 14.375V7.43749C2.04457 7.29243 1.41078 6.90863 0.955388 6.35077C0.499995 5.79292 0.250848 5.09512 0.249939 4.37499V0.624992C0.249939 0.459232 0.315787 0.300261 0.432997 0.183051C0.550207 0.0658404 0.709179 -7.62939e-06 0.874939 -7.62939e-06C1.0407 -7.62939e-06 1.19967 0.0658404 1.31688 0.183051C1.43409 0.300261 1.49994 0.459232 1.49994 0.624992V4.37499C1.50154 4.76141 1.62249 5.13789 1.84624 5.45293C2.07 5.76797 2.38562 6.00619 2.74994 6.13499V0.624992C2.74994 0.459232 2.81579 0.300261 2.933 0.183051C3.05021 0.0658404 3.20918 -7.62939e-06 3.37494 -7.62939e-06C3.5407 -7.62939e-06 3.69967 0.0658404 3.81688 0.183051C3.93409 0.300261 3.99994 0.459232 3.99994 0.624992V6.13499C4.36426 6.00619 4.67988 5.76797 4.90363 5.45293C5.12739 5.13789 5.24834 4.76141 5.24994 4.37499V0.624992C5.24994 0.459232 5.31579 0.300261 5.433 0.183051C5.55021 0.0658404 5.70918 -7.62939e-06 5.87494 -7.62939e-06C6.0407 -7.62939e-06 6.19967 0.0658404 6.31688 0.183051C6.43409 0.300261 6.49994 0.459232 6.49994 0.624992V0.624992ZM12.7499 6.24999C12.722 7.43777 12.4265 8.60395 11.8854 9.66171C11.3444 10.7195 10.5717 11.6416 9.62494 12.3594V14.375C9.62494 14.5408 9.55909 14.6997 9.44188 14.8169C9.32467 14.9341 9.1657 15 8.99994 15C8.83418 15 8.67521 14.9341 8.558 14.8169C8.44079 14.6997 8.37494 14.5408 8.37494 14.375V1.24999C8.36933 1.01516 8.4335 0.783934 8.55933 0.585573C8.68515 0.387212 8.86698 0.230624 9.08181 0.135617C9.32859 0.0352206 9.59927 0.00888622 9.86077 0.0598325C10.1223 0.110779 10.3633 0.236799 10.5543 0.422492C12.0039 2.01309 12.7896 4.0983 12.7499 6.24999V6.24999ZM11.4999 6.24999C11.5177 4.42009 10.8486 2.65004 9.62494 1.28937V10.6687C10.7962 9.49264 11.468 7.90956 11.4999 6.24999Z" fill="black"/>
</svg>
