<svg width="50" height="50" viewBox="0 0 50 50" fill="none" xmlns="http://www.w3.org/2000/svg">
<g filter="url(#filter0_di_321_8528)">
<circle cx="25" cy="24" r="20" fill="url(#paint0_linear_321_8528)"/>
</g>
<g clip-path="url(#clip0_321_8528)">
<path d="M33.1399 15.861C32.63 15.3519 31.9389 15.0659 31.2184 15.0659C30.4978 15.0659 29.8068 15.3519 29.2969 15.861L17.0989 28.059C16.7496 28.4063 16.4726 28.8195 16.284 29.2746C16.0954 29.7296 15.9989 30.2176 16.0001 30.7102V32.25C16.0001 32.4489 16.0791 32.6396 16.2198 32.7803C16.3604 32.9209 16.5512 33 16.7501 33H18.2899C18.7824 33.0014 19.2704 32.905 19.7255 32.7166C20.1806 32.5281 20.5938 32.2512 20.9411 31.902L33.1399 19.7032C33.6487 19.1934 33.9345 18.5024 33.9345 17.7821C33.9345 17.0617 33.6487 16.3708 33.1399 15.861ZM19.8806 30.8415C19.4576 31.2617 18.8861 31.4982 18.2899 31.5H17.5001V30.7102C17.4994 30.4146 17.5572 30.1219 17.6704 29.8488C17.7836 29.5757 17.9498 29.3279 18.1594 29.1195L27.4166 19.8622L29.1416 21.5872L19.8806 30.8415ZM32.0786 18.6427L30.1991 20.523L28.4741 18.8017L30.3544 16.9215C30.4676 16.8084 30.6021 16.7188 30.7499 16.6578C30.8978 16.5967 31.0563 16.5654 31.2163 16.5655C31.3763 16.5657 31.5347 16.5974 31.6825 16.6588C31.8303 16.7202 31.9645 16.8101 32.0775 16.9233C32.1905 17.0366 32.2801 17.171 32.3412 17.3189C32.4023 17.4668 32.4336 17.6253 32.4334 17.7853C32.4333 17.9453 32.4016 18.1037 32.3402 18.2515C32.2788 18.3992 32.1889 18.5334 32.0756 18.6465L32.0786 18.6427Z" fill="white"/>
</g>
<defs>
<filter id="filter0_di_321_8528" x="0" y="0" width="50" height="50" filterUnits="userSpaceOnUse" color-interpolation-filters="sRGB">
<feFlood flood-opacity="0" result="BackgroundImageFix"/>
<feColorMatrix in="SourceAlpha" type="matrix" values="0 0 0 0 0 0 0 0 0 0 0 0 0 0 0 0 0 0 127 0" result="hardAlpha"/>
<feOffset dy="1"/>
<feGaussianBlur stdDeviation="2.5"/>
<feComposite in2="hardAlpha" operator="out"/>
<feColorMatrix type="matrix" values="0 0 0 0 0 0 0 0 0 0 0 0 0 0 0 0 0 0 0.25 0"/>
<feBlend mode="normal" in2="BackgroundImageFix" result="effect1_dropShadow_321_8528"/>
<feBlend mode="normal" in="SourceGraphic" in2="effect1_dropShadow_321_8528" result="shape"/>
<feColorMatrix in="SourceAlpha" type="matrix" values="0 0 0 0 0 0 0 0 0 0 0 0 0 0 0 0 0 0 127 0" result="hardAlpha"/>
<feOffset dy="1"/>
<feGaussianBlur stdDeviation="4"/>
<feComposite in2="hardAlpha" operator="arithmetic" k2="-1" k3="1"/>
<feColorMatrix type="matrix" values="0 0 0 0 0 0 0 0 0 0 0 0 0 0 0 0 0 0 0.1 0"/>
<feBlend mode="normal" in2="shape" result="effect2_innerShadow_321_8528"/>
</filter>
<linearGradient id="paint0_linear_321_8528" x1="9" y1="10" x2="41" y2="38.5" gradientUnits="userSpaceOnUse">
<stop stop-color="#FF366A"/>
<stop offset="1" stop-color="#FF5C5C"/>
</linearGradient>
<clipPath id="clip0_321_8528">
<rect width="18" height="18" fill="white" transform="translate(16 15)"/>
</clipPath>
</defs>
</svg>
